<svg xmlns="http://www.w3.org/2000/svg" viewBox="0 0 500 500"><g id="freepik--background-complete--inject-295"><polygon points="379.28 411.31 387.74 466.9 436.89 466.9 448.29 412.11 379.28 411.31" style="fill:#ebebeb"></polygon><path d="M441.42,446.94c0,.16-12.59.29-28.12.29s-28.13-.13-28.13-.29,12.59-.29,28.13-.29S441.42,446.78,441.42,446.94Z" style="fill:#fafafa"></path><path d="M441.61,444.21c0,.16-12.68.28-28.31.28s-28.32-.12-28.32-.28,12.67-.29,28.32-.29S441.61,444.05,441.61,444.21Z" style="fill:#fafafa"></path><path d="M441.52,441.12c0,.16-12.68.29-28.32.29s-28.32-.13-28.32-.29,12.68-.29,28.32-.29S441.52,441,441.52,441.12Z" style="fill:#fafafa"></path><path d="M393.38,463.73a45.37,45.37,0,0,1-1.5-7,43.6,43.6,0,0,1-.94-7.1,45.72,45.72,0,0,1,1.5,7A43.73,43.73,0,0,1,393.38,463.73Z" style="fill:#fafafa"></path><path d="M396.73,463.14c-.17,0-.35-3.06-.61-6.83s-.49-6.83-.32-6.85a33.27,33.27,0,0,1,.89,6.81A33.71,33.71,0,0,1,396.73,463.14Z" style="fill:#fafafa"></path><path d="M402.82,463.14a34.92,34.92,0,0,1-1.28-7,33.74,33.74,0,0,1-.37-7.11,61.09,61.09,0,0,1,.94,7A60.5,60.5,0,0,1,402.82,463.14Z" style="fill:#fafafa"></path><path d="M407.1,463.43a33.82,33.82,0,0,1-.68-7.11,35.84,35.84,0,0,1,.21-7.15c.17,0,.23,3.2.36,7.13A61.34,61.34,0,0,1,407.1,463.43Z" style="fill:#fafafa"></path><path d="M414.67,463.14a40,40,0,0,1-.52-6.75,40.51,40.51,0,0,1,.06-6.77,39.9,39.9,0,0,1,.52,6.75A39.32,39.32,0,0,1,414.67,463.14Z" style="fill:#fafafa"></path><path d="M420.2,463.43a42.59,42.59,0,0,1-.23-7,41.76,41.76,0,0,1,.35-7,44.07,44.07,0,0,1,.23,7A41.76,41.76,0,0,1,420.2,463.43Z" style="fill:#fafafa"></path><path d="M425.39,462.69a93.23,93.23,0,0,1,1.41-14.54,93.23,93.23,0,0,1-1.41,14.54Z" style="fill:#fafafa"></path><path d="M432.07,462a25,25,0,0,1,.83-6.21,24.54,24.54,0,0,1,1.83-6,55.7,55.7,0,0,1-1.26,6.12C432.73,459.24,432.24,462,432.07,462Z" style="fill:#fafafa"></path><path d="M427.34,301.61a1,1,0,0,1-.06.27c-.06.21-.14.47-.23.79q-.35,1.09-.93,3c-.42,1.3-.92,2.89-1.45,4.76s-1.18,4-1.77,6.33-1.3,4.94-1.91,7.75-1.26,5.79-1.9,8.95c-1.18,6.34-2.25,13.34-3,20.74s-1.05,14.5-1.15,20.94c0,3.23,0,6.29.09,9.15s.2,5.54.35,8,.33,4.63.48,6.57.32,3.59.48,4.94.24,2.37.32,3.13c0,.33.05.6.07.81a1,1,0,0,1,0,.28.87.87,0,0,1-.06-.27l-.12-.81c-.11-.75-.25-1.79-.44-3.11s-.4-3-.57-4.94-.44-4.13-.57-6.57-.35-5.11-.42-8-.12-5.94-.14-9.17c.07-6.46.38-13.57,1.11-21s1.85-14.45,3.06-20.79c.66-3.16,1.25-6.18,1.95-9s1.34-5.39,2-7.74,1.3-4.47,1.86-6.33,1.08-3.44,1.53-4.73l1-3,.29-.77A.85.85,0,0,1,427.34,301.61Z" style="fill:#ebebeb"></path><path d="M418.47,336a18.27,18.27,0,0,1,7.64-9.65c1.22-.75,2.75-1.36,4-.74,1.72.83,1.86,3.24,1.35,5.08a13.46,13.46,0,0,1-5.57,7.58,11.32,11.32,0,0,1-8.34,2.1" style="fill:#ebebeb"></path><path d="M415.49,359.28c1.26-4.8,5.09-11.62,9.07-14.59a5.79,5.79,0,0,1,2.06-1.1,2.4,2.4,0,0,1,2.21.48c.81.77.73,2.08.49,3.18A19.36,19.36,0,0,1,415,361.69" style="fill:#ebebeb"></path><path d="M414.66,379.74a28.09,28.09,0,0,1,9.15-11.51,4.36,4.36,0,0,1,3.2-1.14c1.73.32,2.52,2.44,2.37,4.2-.32,3.61-3.08,6.52-5.93,8.76a36.75,36.75,0,0,1-8.47,4.36" style="fill:#ebebeb"></path><path d="M415.12,394.45a27,27,0,0,1,7.79-8.87,5.55,5.55,0,0,1,2.34-1,2.35,2.35,0,0,1,2.29.87c.78,1.14,0,2.69-.8,3.8a22.21,22.21,0,0,1-11.11,8.15" style="fill:#ebebeb"></path><path d="M414.74,388.47a87.13,87.13,0,0,0-11.14-11.34c-.63-.54-1.43-1.1-2.22-.84a1.68,1.68,0,0,0-1,1.5,4.22,4.22,0,0,0,.43,1.86,21.56,21.56,0,0,0,14.33,12.06" style="fill:#ebebeb"></path><path d="M415.09,369.33l-8.74-10.66a10.71,10.71,0,0,0-2.84-2.7,3.58,3.58,0,0,0-3.73,0,3.5,3.5,0,0,0-1.2,3.52,9.2,9.2,0,0,0,1.7,3.5,25.92,25.92,0,0,0,6.38,6.78c2.57,1.76,4.9,2.91,8,2.46" style="fill:#ebebeb"></path><path d="M416.31,347.78a30.48,30.48,0,0,0-8.8-13.21,5.18,5.18,0,0,0-2.3-1.34c-1.75-.34-3.44,1.12-4,2.82a7.22,7.22,0,0,0,.8,5.79,15.3,15.3,0,0,0,4.11,4.34,35.41,35.41,0,0,0,9.73,5.26" style="fill:#ebebeb"></path><path d="M419.81,328.57c-.85-6.19-4.07-11.33-7.8-16.33-.78-1.06-1.88-2.18-3.18-2a2.54,2.54,0,0,0-1.83,1.57,5.73,5.73,0,0,0-.34,2.47,19.09,19.09,0,0,0,12.39,17.06" style="fill:#ebebeb"></path><path d="M422.25,318.76a51.83,51.83,0,0,1-.32-9.56,17.16,17.16,0,0,1,3.18-8.91,7.37,7.37,0,0,1,3.17-2.53,4,4,0,0,1,3.9.52,4.22,4.22,0,0,1,1.34,3.43,10.71,10.71,0,0,1-1,3.66c-2.33,5.61-6.22,11.82-10.28,13.39" style="fill:#ebebeb"></path><path d="M384.14,326.12a3.71,3.71,0,0,1,.05.79c0,.57,0,1.31,0,2.24s0,2.17,0,3.55.06,3,.17,4.69c.15,3.48.49,7.61,1,12.18s1.34,9.57,2.42,14.77,2.4,10.09,3.71,14.5,2.71,8.31,4,11.56c.59,1.64,1.22,3.08,1.73,4.37s1,2.38,1.37,3.27.66,1.54.88,2.06a3.45,3.45,0,0,1,.27.74,5.46,5.46,0,0,1-.37-.69c-.25-.51-.58-1.18-1-2s-.93-2-1.47-3.24-1.19-2.71-1.81-4.34c-1.31-3.24-2.71-7.15-4.09-11.56s-2.67-9.32-3.78-14.53-1.84-10.24-2.38-14.82-.8-8.74-.9-12.23c-.09-1.74-.07-3.32-.08-4.71s0-2.58,0-3.55.06-1.67.08-2.25A4.39,4.39,0,0,1,384.14,326.12Z" style="fill:#e0e0e0"></path><path d="M385.51,351.47a13.07,13.07,0,0,1,3.13-8.22,3.12,3.12,0,0,1,2.59-1.37c1.35.19,2,1.81,2,3.17a9.58,9.58,0,0,1-2.16,6.35,8.11,8.11,0,0,1-5.23,3.24" style="fill:#e0e0e0"></path><path d="M388.48,367.94c-.16-3.54,1-9,3-11.89a4.28,4.28,0,0,1,1.17-1.19,1.7,1.7,0,0,1,1.6-.15,2.41,2.41,0,0,1,1,2.06,13.81,13.81,0,0,1-6.65,12.92" style="fill:#e0e0e0"></path><path d="M392.33,382.05a20.07,20.07,0,0,1,3.75-9.81,3.11,3.11,0,0,1,1.93-1.46c1.25-.16,2.24,1.11,2.52,2.34.56,2.53-.7,5.11-2.15,7.25a26.33,26.33,0,0,1-4.83,4.79" style="fill:#e0e0e0"></path><path d="M395.81,392a19.26,19.26,0,0,1,3.39-7.71,4.11,4.11,0,0,1,1.37-1.22,1.71,1.71,0,0,1,1.75.1c.77.62.6,1.83.27,2.76a15.8,15.8,0,0,1-5.81,7.95" style="fill:#e0e0e0"></path><path d="M394.26,388a61.67,61.67,0,0,0-10-5.33,1.76,1.76,0,0,0-1.69-.09,1.17,1.17,0,0,0-.38,1.24,3.1,3.1,0,0,0,.69,1.17,15.44,15.44,0,0,0,12.36,5.13" style="fill:#e0e0e0"></path><path d="M390.38,374.87l-8.25-5.38a7.6,7.6,0,0,0-2.51-1.22,2.55,2.55,0,0,0-2.55.77,2.52,2.52,0,0,0-.06,2.66,6.68,6.68,0,0,0,1.92,2,18.6,18.6,0,0,0,5.79,3.24c2.13.65,4,.93,6,0" style="fill:#e0e0e0"></path><path d="M386.57,359.93a21.75,21.75,0,0,0-8.84-7.1,3.64,3.64,0,0,0-1.85-.42,2.76,2.76,0,0,0-2.12,2.79,5.13,5.13,0,0,0,1.79,3.77,10.93,10.93,0,0,0,3.73,2.07,25.11,25.11,0,0,0,7.76,1.48" style="fill:#e0e0e0"></path><path d="M384.82,346.1c-1.91-4-5.21-6.84-8.83-9.44-.76-.55-1.75-1.08-2.59-.66a1.79,1.79,0,0,0-.91,1.46,4.44,4.44,0,0,0,.3,1.76,13.66,13.66,0,0,0,12.11,8.95" style="fill:#e0e0e0"></path><path d="M384.37,338.89a36.23,36.23,0,0,1-2.27-6.44,12.15,12.15,0,0,1,.24-6.74A5.27,5.27,0,0,1,384,323.3a2.86,2.86,0,0,1,2.76-.49,3.06,3.06,0,0,1,1.65,2.05,7.94,7.94,0,0,1,.12,2.71c-.38,4.32-1.69,9.38-4.12,11.32" style="fill:#e0e0e0"></path><path d="M446.28,325.58a3.49,3.49,0,0,1,.07.79c0,.57,0,1.31.08,2.24s.07,2.17.05,3.55,0,3-.09,4.71c-.1,3.49-.39,7.64-.89,12.23s-1.31,9.6-2.39,14.82-2.42,10.12-3.77,14.53-2.78,8.32-4.09,11.56c-.62,1.63-1.27,3.07-1.82,4.34s-1,2.36-1.46,3.24l-1,2a3.69,3.69,0,0,1-.38.69,4.36,4.36,0,0,1,.27-.74c.23-.52.52-1.21.88-2.06s.87-2,1.38-3.27,1.13-2.73,1.73-4.37c1.26-3.25,2.61-7.17,4-11.56s2.61-9.3,3.72-14.5S444.4,353.6,445,349s.86-8.71,1-12.19c.11-1.73.12-3.31.16-4.69s.06-2.57.06-3.55,0-1.67,0-2.24A4.83,4.83,0,0,1,446.28,325.58Z" style="fill:#ebebeb"></path><path d="M444.91,350.93a13,13,0,0,0-3.12-8.22,3.12,3.12,0,0,0-2.59-1.37c-1.35.19-2,1.81-2,3.17a9.62,9.62,0,0,0,2.15,6.36,8.18,8.18,0,0,0,5.23,3.23" style="fill:#ebebeb"></path><path d="M441.94,367.4c.17-3.54-1-9-3-11.89a4.28,4.28,0,0,0-1.17-1.19,1.71,1.71,0,0,0-1.61-.15,2.43,2.43,0,0,0-1,2.06,13.82,13.82,0,0,0,6.66,12.92" style="fill:#ebebeb"></path><path d="M438.1,381.51a20,20,0,0,0-3.76-9.81,3.08,3.08,0,0,0-1.93-1.46c-1.25-.16-2.24,1.11-2.51,2.34-.57,2.54.69,5.11,2.15,7.25a26.33,26.33,0,0,0,4.83,4.79" style="fill:#ebebeb"></path><path d="M434.62,391.42a19.14,19.14,0,0,0-3.4-7.71,4.17,4.17,0,0,0-1.36-1.22,1.71,1.71,0,0,0-1.75.1c-.78.62-.61,1.83-.27,2.77a15.82,15.82,0,0,0,5.81,7.94" style="fill:#ebebeb"></path><path d="M436.17,387.44a61.62,61.62,0,0,1,10-5.33,1.76,1.76,0,0,1,1.69-.09,1.18,1.18,0,0,1,.37,1.24,3,3,0,0,1-.68,1.17,15.46,15.46,0,0,1-12.36,5.13" style="fill:#ebebeb"></path><path d="M440,374.33,448.3,369a7.5,7.5,0,0,1,2.51-1.22,2.57,2.57,0,0,1,2.55.77,2.54,2.54,0,0,1,.06,2.66,6.68,6.68,0,0,1-1.92,2,18.34,18.34,0,0,1-5.8,3.24c-2.13.65-4,.93-6,0" style="fill:#ebebeb"></path><path d="M443.85,359.4a21.75,21.75,0,0,1,8.84-7.11,3.8,3.8,0,0,1,1.85-.42,2.76,2.76,0,0,1,2.13,2.79,5.21,5.21,0,0,1-1.79,3.77,10.81,10.81,0,0,1-3.74,2.07,25.3,25.3,0,0,1-7.75,1.49" style="fill:#ebebeb"></path><path d="M445.61,345.56c1.91-4,5.21-6.84,8.82-9.44.77-.55,1.75-1.08,2.6-.66a1.8,1.8,0,0,1,.9,1.46,4.26,4.26,0,0,1-.29,1.76,13.67,13.67,0,0,1-12.12,8.95" style="fill:#ebebeb"></path><path d="M446.06,338.35a36.23,36.23,0,0,0,2.27-6.44,12.15,12.15,0,0,0-.24-6.74,5.27,5.27,0,0,0-1.62-2.41,2.88,2.88,0,0,0-2.77-.49,3.07,3.07,0,0,0-1.64,2.05,7.7,7.7,0,0,0-.12,2.71c.38,4.32,1.69,9.38,4.12,11.32" style="fill:#ebebeb"></path><path d="M373.64,400.3v10.4a4.09,4.09,0,0,0,4.09,4.1h71.18a4.09,4.09,0,0,0,4.09-4.1V400.3Z" style="fill:#ebebeb"></path><polygon points="379.81 414.8 380.4 418.11 446.07 422.79 447.74 414.8 379.81 414.8" style="fill:#e0e0e0"></polygon><rect x="335.89" y="29.16" width="107.55" height="112.11" style="fill:#e0e0e0"></rect><rect x="328.61" y="29.16" width="107.55" height="112.11" style="fill:#fafafa"></rect><path d="M436.19,141.31H328.58V29.13H436.19Zm-107.55-.07H436.13v-112H328.64Z" style="fill:#e0e0e0"></path><rect x="343.07" y="44.23" width="78.63" height="81.97" style="fill:#fff"></rect><path d="M343.07,126.75a13.32,13.32,0,0,1-1.94,2.25c-1.26,1.33-3,3.12-5,5.07s-3.8,3.69-5.14,4.92a12.37,12.37,0,0,1-2.27,1.89,12.25,12.25,0,0,1,1.93-2.25c1.25-1.32,3-3.12,5-5.07s3.8-3.7,5.14-4.93A12.24,12.24,0,0,1,343.07,126.75Z" style="fill:#e0e0e0"></path><path d="M421.7,126.55a12.05,12.05,0,0,1,2.26,1.94c1.32,1.25,3.12,3,5.07,5s3.68,3.8,4.91,5.14a13.18,13.18,0,0,1,1.9,2.27,12.25,12.25,0,0,1-2.25-1.93c-1.33-1.25-3.12-3-5.08-5s-3.69-3.8-4.92-5.14A12.41,12.41,0,0,1,421.7,126.55Z" style="fill:#e0e0e0"></path><path d="M421.49,44.45a13,13,0,0,1,1.94-2.26c1.25-1.32,3-3.11,5-5.06s3.79-3.69,5.13-4.92a12.2,12.2,0,0,1,2.28-1.89,13.58,13.58,0,0,1-1.93,2.24c-1.26,1.33-3,3.13-5,5.08s-3.81,3.69-5.15,4.93A12.57,12.57,0,0,1,421.49,44.45Z" style="fill:#e0e0e0"></path><path d="M342.85,44.65a12.75,12.75,0,0,1-2.25-1.94c-1.33-1.25-3.12-3-5.07-5s-3.69-3.79-4.92-5.13a12.59,12.59,0,0,1-1.89-2.28A12.78,12.78,0,0,1,331,32.23c1.32,1.26,3.12,3,5.07,5s3.7,3.81,4.93,5.15A12,12,0,0,1,342.85,44.65Z" style="fill:#e0e0e0"></path><path d="M421.49,126.2a3.15,3.15,0,0,1,0-.4c0-.28,0-.65,0-1.14,0-1,0-2.51,0-4.43,0-3.88-.05-9.53-.08-16.7,0-14.36-.09-34.81-.16-59.3l.31.3-78.41,0h0l.35-.35c0,30.09,0,58.23-.05,82l-.3-.3,56.78.16,15.95.07,4.22,0,1.09,0h.38l-.35,0-1.06,0-4.16,0-15.88.08-57,.15h-.3v-.3c0-23.74,0-51.88,0-82v-.35h.36l78.41,0h.3v.3c-.06,24.57-.12,45.09-.15,59.49,0,7.15-.06,12.77-.08,16.64,0,1.89,0,3.35,0,4.37,0,.47,0,.84,0,1.11S421.49,126.21,421.49,126.2Z" style="fill:#e0e0e0"></path><rect x="369.27" y="72.1" width="26.24" height="26.24" style="fill:#ebebeb"></rect><rect x="46.7" y="37.81" width="183.24" height="329.18" style="fill:#ebebeb"></rect><rect x="54.02" y="47.35" width="166.71" height="309.83" style="fill:#fafafa"></rect><polygon points="237.69 369.95 229.94 366.99 229.94 32.23 237.69 32.23 237.69 369.95" style="fill:#e0e0e0"></polygon><path d="M94.89,247.48l43.3-40.24c5.48-5.1,12.65-10.59,19.71-8.08,3.39,1.21,5.95,4.11,9.27,5.49,6.65,2.77,14.24-1.22,19.35-6.3s9.15-11.41,15.34-15.09,15.81-3.21,18.87,3.31v43.79L157.81,257.3Z" style="fill:#f5f5f5"></path><path d="M54,222.31c16-6.5,31.88-1,43.3,11.92,2.4,2.72,4.59,5.86,7.89,7.35,4.47,2,9.64.51,14.52,0a36.52,36.52,0,0,1,34.34,16.64l-53.27,26.2L54,284Z" style="fill:#e0e0e0"></path><path d="M220.73,222.53c-10.51-5.08-19.76,1.06-29.45,7.56s-18.7,14.82-30.08,17.44c-7.59,1.75-15.73.78-23.08,3.4-15,5.32-23.62,24.33-39.48,25.23-8.61.5-16.33-4.72-24-8.64s-13.74-7.63-20.6-2.4v92.06H220.73Z" style="fill:#ebebeb"></path><rect x="54.02" y="136.48" width="170.33" height="3.3" style="fill:#e0e0e0"></rect><rect x="54.02" y="210.26" width="170.33" height="3.3" style="fill:#e0e0e0"></rect><rect x="54.02" y="284.04" width="170.33" height="3.3" style="fill:#e0e0e0"></rect><rect x="23.46" y="247.84" width="227.83" height="8.42" transform="translate(-114.67 389.42) rotate(-90)" style="fill:#e0e0e0"></rect><rect x="86.12" y="47.35" width="3.82" height="90.78" style="fill:#e0e0e0"></rect><rect x="119.03" y="47.35" width="3.82" height="90.78" style="fill:#e0e0e0"></rect><rect x="151.94" y="47.35" width="3.82" height="90.78" style="fill:#e0e0e0"></rect><rect x="184.85" y="47.35" width="3.82" height="90.78" style="fill:#e0e0e0"></rect><rect x="38.95" y="32.23" width="7.75" height="336.8" style="fill:#e0e0e0"></rect><rect x="38.95" y="28.83" width="198.74" height="8.98" style="fill:#e0e0e0"></rect><rect x="33.45" y="371.06" width="209.48" height="8.37" style="fill:#e0e0e0"></rect><polygon points="229.94 366.99 242.94 371.06 33.45 371.06 46.7 366.99 229.94 366.99" style="fill:#ebebeb"></polygon></g><g id="freepik--Table--inject-295"><path d="M485.23,465.91c0,.14-105.77.26-236.22.26s-236.24-.12-236.24-.26,105.75-.26,236.24-.26S485.23,465.76,485.23,465.91Z" style="fill:#263238"></path></g><g id="freepik--speech-bubble--inject-295"><polygon points="390.44 179.21 372.57 160.71 368.13 189.97 344.19 189.16 359.17 208.83 344.1 228.61 369.06 223.69 372.67 248.81 392.85 233.52 418.29 246.84 412.72 221.13 441.59 216.59 419.14 203.34 432.23 180.76 409.79 189.53 407.06 161.69 390.44 179.21" style="fill:#fff"></polygon><path d="M390.44,179.21s.37-.37,1.09-1.12l3.23-3.35,12.4-13-.24-.08c.72,7.56,1.62,17,2.67,27.85l0,.27.25-.1L432.32,181l-.3-.34c-4,7-8.46,14.57-13.11,22.56l-.14.23.23.14,22.45,13.27.1-.53-28.87,4.53-.32,0,.07.31c1.77,8.19,3.65,16.86,5.56,25.71l.45-.34L396.39,235l-3.4-1.79-.18-.09-.15.12-20.18,15.29.49.2q-1.85-12.84-3.62-25.11l0-.31-.31.06-25,4.93.28.46L359.38,209l.13-.17-.13-.16-15-19.66-.2.39,23.94.78h.19l0-.19c1.72-11.52,3.19-21.33,4.37-29.27l-.25.08,13.38,13.73,3.44,3.51,1.16,1.16L389.28,178l-3.41-3.58-13.2-13.79-.2-.21-.05.29c-1.22,7.94-2.73,17.74-4.5,29.26l.21-.18-23.93-.84-.51,0,.31.41L359,209v-.32l-15.09,19.77-.46.6.74-.15,25-4.9-.36-.26c1.17,8.17,2.37,16.56,3.6,25.12l.07.52.42-.32L393,233.77l-.33,0,3.4,1.78,22,11.54.58.3-.14-.64c-1.92-8.85-3.8-17.52-5.57-25.71l-.25.36,28.87-4.56.79-.12-.69-.41-22.47-13.23.1.36,13.07-22.59.34-.59-.64.25-22.43,8.8.28.17c-1.09-10.87-2-20.28-2.79-27.84l0-.31-.22.23-12.23,13L391.53,178C390.81,178.79,390.44,179.21,390.44,179.21Z" style="fill:#263238"></path><path d="M342.51,210.09a5.33,5.33,0,1,1-5.33-5.33A5.33,5.33,0,0,1,342.51,210.09Z" style="fill:#fff"></path><path d="M342.51,210.09s0-.47-.23-1.28a5.35,5.35,0,0,0-1.95-2.85,5.13,5.13,0,0,0-2.19-1,5.23,5.23,0,0,0-2.72.24,5,5,0,0,0-2.39,1.8,5.17,5.17,0,0,0,2.39,7.89,5.34,5.34,0,0,0,2.72.24,5.27,5.27,0,0,0,2.19-1,5.35,5.35,0,0,0,1.95-2.85c.21-.8.19-1.28.23-1.28s0,.12,0,.34a4.81,4.81,0,0,1-.12,1,5.31,5.31,0,0,1-1.93,3,5.43,5.43,0,0,1-2.3,1.05,5.5,5.5,0,1,1,0-10.8,5.43,5.43,0,0,1,2.3,1.05,5.31,5.31,0,0,1,1.93,3,4.81,4.81,0,0,1,.12,1C342.53,210,342.53,210.09,342.51,210.09Z" style="fill:#263238"></path><path d="M393.08,190.69,392,207.76a2.76,2.76,0,0,1-2.6,2.58h0a2.77,2.77,0,0,1-2.92-2.46l-1.89-17.15a2.18,2.18,0,0,1,2.19-2.41l4.16.06A2.18,2.18,0,0,1,393.08,190.69Z" style="fill:#009354"></path><path d="M384.88,219.94a4.16,4.16,0,1,0,2.64-5.26A4.16,4.16,0,0,0,384.88,219.94Z" style="fill:#009354"></path></g><g id="freepik--Inhaller--inject-295"><path d="M93.06,448.82l-9.29-.23A1.72,1.72,0,0,0,82,450a27.07,27.07,0,0,0,.57,11.75A1.71,1.71,0,0,0,84.18,463l12.08.44Z" style="fill:#e0e0e0"></path><path d="M93.06,448.82a6.38,6.38,0,0,1,.28,1l.71,2.94,2.44,10.58.06.29h-.3l-11.43-.39-.68,0a2.13,2.13,0,0,1-.75-.19,1.92,1.92,0,0,1-1-1.12,23,23,0,0,1-.62-2.58,26.81,26.81,0,0,1-.36-5,28.94,28.94,0,0,1,.45-4.5,1.93,1.93,0,0,1,1.59-1.44c.72,0,1.31,0,1.93,0l5.67.23,1.52.08a2.83,2.83,0,0,1,.5.06l-.57,0H90.94l-5.62-.05c-.58,0-1.24,0-1.82,0A1.51,1.51,0,0,0,82.27,450a30,30,0,0,0-.39,4.41,26.65,26.65,0,0,0,.39,4.88,20.18,20.18,0,0,0,.6,2.5,1.39,1.39,0,0,0,.74.82,1.49,1.49,0,0,0,.55.14l.68,0,11.43.44-.24.29c-.89-4.26-1.64-7.87-2.19-10.49l-.6-3A8.71,8.71,0,0,1,93.06,448.82Z" style="fill:#263238"></path><path d="M90.46,446.87l36,1.11,1-1.54,1.21.29,1.89-7.9a1,1,0,0,1,.88-.75l8.51-.74a1,1,0,0,1,1.05,1.21L138.43,449l.23.4a2.4,2.4,0,0,1-.57,3.07h0l-2.82,11.42a2.63,2.63,0,0,1-2.56,2l-38.61,0-1-4.18Z" style="fill:#455a64"></path><path d="M126.82,450.37c0,.14-7.91-.07-17.66-.46s-17.64-.84-17.64-1,7.91.06,17.66.46S126.82,450.22,126.82,450.37Z" style="fill:#263238"></path><path d="M138.43,449a30.43,30.43,0,0,1-5.58-1,31.08,31.08,0,0,1-5.46-1.52,30.43,30.43,0,0,1,5.58,1A31.08,31.08,0,0,1,138.43,449Z" style="fill:#263238"></path><path d="M93.91,463.31a2.44,2.44,0,0,1,.56-.05l1.62-.05c1.41,0,3.44,0,6,0l19.65.12c3.93,0,7.67,0,11,0l-.21.33-4.47-11.21-1.24-3.21a6.46,6.46,0,0,1-.39-1.17,8,8,0,0,1,.53,1.11c.35.8.8,1.86,1.37,3.16,1.16,2.8,2.76,6.64,4.64,11.14l.13.31-.34,0c-3.39.1-7.13.1-11.07.09-7.67-.05-14.62-.19-19.64-.28l-6-.12-1.62-.05A1.88,1.88,0,0,1,93.91,463.31Z" style="fill:#263238"></path><path d="M90.23,446.91a88.83,88.83,0,0,1,2.18,9.4,91.3,91.3,0,0,1,1.67,9.5,88.83,88.83,0,0,1-2.18-9.4A91.3,91.3,0,0,1,90.23,446.91Z" style="fill:#263238"></path></g><g id="freepik--Character--inject-295"><polygon points="153.06 274.55 128.51 314.59 157.73 326.93 174.51 286.46 153.06 274.55" style="fill:#b5675e"></polygon><path d="M153.82,224.6s-.73-4.56,2.88-5.35c3.22-.7,5.85,1.73,7.56,5.88s7.85,20,7.85,20l-3.93,3.55Z" style="fill:#b5675e"></path><path d="M158.75,228.19l-5.48-7.51a1.7,1.7,0,0,0-2.19-.5,26.85,26.85,0,0,0-9,7.6,1.7,1.7,0,0,0,0,2l7,9.85Z" style="fill:#e0e0e0"></path><path d="M158.75,228.19a6.16,6.16,0,0,1-.62.84l-1.91,2.36-6.91,8.36-.19.24-.18-.25-6.65-9.3-.39-.56a2,2,0,0,1-.31-.71,2,2,0,0,1,.27-1.48,23.12,23.12,0,0,1,1.68-2.06,26.6,26.6,0,0,1,3.73-3.32,27.63,27.63,0,0,1,3.84-2.38,1.93,1.93,0,0,1,2.11.38c.46.55.77,1.06,1.14,1.55l3.27,4.65.86,1.25a1.78,1.78,0,0,1,.26.43,3.61,3.61,0,0,1-.37-.43l-.95-1.23c-.84-1.12-2-2.64-3.39-4.48-.35-.46-.72-1-1.1-1.45a1.52,1.52,0,0,0-1.66-.28,30,30,0,0,0-3.73,2.38,26.88,26.88,0,0,0-3.64,3.27,22.34,22.34,0,0,0-1.61,2,1.43,1.43,0,0,0,0,1.61l.39.55c2.37,3.36,4.62,6.54,6.61,9.34l-.37,0,7-8.12c.83-1,1.51-1.73,2-2.31A11.1,11.1,0,0,1,158.75,228.19Z" style="fill:#263238"></path><path d="M158.71,224.94l21,29.21,1.82-.18.5,1.14,7.42-3.31a1,1,0,0,1,1.13.24l5.77,6.3a1,1,0,0,1-.33,1.57l-9.79,4.37-.18.42a2.41,2.41,0,0,1-2.78,1.43h0l-10.78,4.71a2.63,2.63,0,0,1-3.15-.8l-23.53-30.62,2.72-3.32Z" style="fill:#009354"></path><path d="M178.08,255.91c-.12.08-4.77-6.31-10.39-14.28s-10.08-14.51-10-14.59,4.77,6.31,10.39,14.29S178.2,255.83,178.08,255.91Z" style="fill:#263238"></path><path d="M186.25,264.28a31.12,31.12,0,0,1-2.59-5,29.55,29.55,0,0,1-2.11-5.26,30.65,30.65,0,0,1,2.58,5A31.09,31.09,0,0,1,186.25,264.28Z" style="fill:#263238"></path><path d="M147.77,237.69s.15.13.39.41l1,1.26c.87,1.09,2.13,2.7,3.66,4.7l11.86,15.65c2.38,3.14,4.65,6.11,6.77,8.74l-.39,0,6.16-10.37c.74-1.21,1.34-2.2,1.8-2.94a7.67,7.67,0,0,1,.68-1,6.62,6.62,0,0,1-.55,1.1c-.42.76-1,1.76-1.68,3l-6,10.46-.17.3-.22-.27c-2.15-2.62-4.43-5.59-6.81-8.72-4.64-6.12-8.76-11.71-11.75-15.75l-3.53-4.8-.94-1.31A2.71,2.71,0,0,1,147.77,237.69Z" style="fill:#263238"></path><path d="M158.55,224.78a88.15,88.15,0,0,1-6.13,7.46,91,91,0,0,1-6.53,7.11,89.07,89.07,0,0,1,6.14-7.46A89.82,89.82,0,0,1,158.55,224.78Z" style="fill:#263238"></path><path d="M145.77,227a3.9,3.9,0,0,0-.08-5.9,2.33,2.33,0,0,0-1.64-.58c-2.38.23-16.92,6-17.38,15.34l11.41,12.84s-2.37,6.16,1.21,11.21c0,0-.26,3.36,3.49,7,0,0-1.3,3.64,4.24,8.55s8.84,8.48,8.84,8.48l18.65,2.58s3.51-10.79,3.09-17.75l-3.49,1.44s-1.11-2.52-.74-2.54c7.54-.44,4.37-9.45,4.37-9.45l-8.15-8.86a5.44,5.44,0,0,0-4.63-1.21L152.6,250.6l.76-6.08L166,245.89s7.12.64,4.4-6.54c0,0-15.28-3.36-19.22-4.11a8.11,8.11,0,0,0-8.05,2.82l-4.95-4.13Z" style="fill:#b5675e"></path><path d="M153.76,260.25s.15-.1.47-.24.78-.32,1.39-.55a42.11,42.11,0,0,1,5.3-1.53c1.14-.25,2.39-.47,3.76-.65a10.11,10.11,0,0,1,2.15-.1,4.39,4.39,0,0,1,2.22.72c1.39,1,1.94,2.65,2.53,4.18l1.81,4.84a16.42,16.42,0,0,1,.91,2.86,4.18,4.18,0,0,1-.43,2.94,4.44,4.44,0,0,1-4.93,1.88,6.17,6.17,0,0,1-3.73-2.94,9.75,9.75,0,0,1-1.2-3.77l.22.13-4.13,1.32a9.43,9.43,0,0,1-1.5.41,9.92,9.92,0,0,1,1.44-.58l4.08-1.46.19-.07,0,.21a9.44,9.44,0,0,0,1.22,3.6,5.8,5.8,0,0,0,3.5,2.7,4,4,0,0,0,4.37-1.69,3.64,3.64,0,0,0,.36-2.59,17,17,0,0,0-.88-2.77l-1.81-4.84c-.58-1.55-1.12-3.13-2.32-4a5.85,5.85,0,0,0-4.05-.58c-1.35.16-2.6.36-3.74.58a52,52,0,0,0-5.3,1.36l-1.42.46A2.32,2.32,0,0,1,153.76,260.25Z" style="fill:#894943"></path><path d="M143.06,238.24a38.83,38.83,0,0,1-2.45,5.71,36.61,36.61,0,0,1-2.91,5.49,36.86,36.86,0,0,1,2.44-5.71A37.33,37.33,0,0,1,143.06,238.24Z" style="fill:#894943"></path><path d="M155.25,250.06a46.58,46.58,0,0,1-4.85,1.46,43.51,43.51,0,0,1-4.86,1.41,17.62,17.62,0,0,1,4.71-1.91A17.2,17.2,0,0,1,155.25,250.06Z" style="fill:#894943"></path><path d="M170.52,250.31s.27.19.71.6,1.07,1,1.82,1.78,1.65,1.68,2.6,2.74c.47.53.95,1.1,1.43,1.72a6.46,6.46,0,0,1,1.23,2.16,10.58,10.58,0,0,1,.05,4.68,5.13,5.13,0,0,1-2,3.25,2.55,2.55,0,0,1-2.56.09c-.55-.33-.66-.7-.64-.7s.21.28.73.52a2.38,2.38,0,0,0,2.27-.22,4.87,4.87,0,0,0,1.77-3.05,10.38,10.38,0,0,0-.09-4.46,6.22,6.22,0,0,0-1.12-2c-.47-.61-.93-1.18-1.4-1.71-.91-1.08-1.77-2-2.49-2.81A22.08,22.08,0,0,1,170.52,250.31Z" style="fill:#894943"></path><path d="M202,253.8a20.06,20.06,0,0,1-6.19,1.94,10.43,10.43,0,0,1,3-1.22A10.07,10.07,0,0,1,202,253.8Z" style="fill:#263238"></path><path d="M201,247.83a38.87,38.87,0,0,1-3.22,3.26,18.72,18.72,0,0,1-3.48,3,22.57,22.57,0,0,1,3.12-3.37C199.18,248.94,200.85,247.68,201,247.83Z" style="fill:#263238"></path><path d="M195.16,245.53a16.58,16.58,0,0,1-2.38,7.13,20.2,20.2,0,0,1,1.1-3.59A21,21,0,0,1,195.16,245.53Z" style="fill:#263238"></path><path d="M196,288.06l32.6-13.51,44.68-11.43s38.91,7.2,53.59,16.82C339.72,288.4,324,406.85,324,406.85l13.49,60.56L201,465.35l5.87-40.54s-14.72-33.12-16.6-54.92S196,288.06,196,288.06Z" style="fill:#009354"></path><path d="M307,354.58a1,1,0,0,1-.3.05l-.87.1-3.39.31c-2.94.26-7.19.6-12.45,1-10.52.78-25.07,1.68-41.16,2.37s-30.66,1-41.21,1.15c-5.27.06-9.54.08-12.49.07l-3.4,0-.88,0a1,1,0,0,1-.3,0,1.16,1.16,0,0,1,.3,0l.88,0,3.4-.08,12.49-.24c10.54-.22,25.11-.61,41.19-1.3s30.63-1.53,41.15-2.21l12.47-.83,3.39-.21.88,0Z" style="fill:#fff"></path><path d="M129.86,302.77s-20.26,36.4-25.81,54.69-4.17,30.57,2,36.12,22.22,7.84,35.28,0,49.9-30.73,49.9-30.73l5.36-75.07s-6.9,2.63-17.8,14.45c-9.36,10.16-21.1,24.7-21.1,24.7l5.64-13.59Z" style="fill:#009354"></path><g style="opacity:0.30000000000000004"><path d="M199.63,339.46c0,3.48,2.08,6.69,4.73,9s5.85,3.76,8.93,5.38A101.61,101.61,0,0,1,236.83,371c2.23,2.17,4.49,5.52,2.77,8.12-.65,1-1.8,1.63-2.3,2.72-.78,1.73.41,3.67,1.56,5.18,24,31.42,57.22,54.75,95.29,65.45l-4.85-22.76-69.65-70.44-35.39-13.28-13.62-2.73Z"></path></g><path d="M318.9,277s13.56.78,20.52,17.42,21.41,110.87,21.62,127c.17,12.52-9.53,25.55-26.75,24.39s-91.84-64.32-91.84-64.32l30.73-31.19,41.93,33.49s-15.25-42.9-16.73-56.86C296.59,310,293.25,281.65,318.9,277Z" style="fill:#009354"></path><path d="M198.22,305.55a4.23,4.23,0,0,1-.09.73l-.36,2.05c-.32,1.78-.84,4.35-1.49,7.52-1.29,6.35-3.34,15.06-4.87,24.81A129.29,129.29,0,0,0,190,354.48q-.06,1.61-.12,3.12c0,1,0,2,0,2.94,0,1.9.13,3.67.19,5.28.23,3.22.47,5.83.74,7.62.1.86.19,1.54.25,2.07a3.61,3.61,0,0,1,.05.73,5.06,5.06,0,0,1-.15-.72c-.09-.52-.21-1.2-.35-2-.33-1.78-.63-4.39-.91-7.62-.08-1.62-.26-3.39-.25-5.3,0-1,0-1.94,0-3s.06-2.06.09-3.13a127.24,127.24,0,0,1,1.35-13.88c1.54-9.78,3.65-18.48,5-24.8.69-3.12,1.25-5.66,1.65-7.49.19-.84.34-1.52.45-2A3.41,3.41,0,0,1,198.22,305.55Z" style="fill:#263238"></path><path d="M299.41,332.09l.29.89c.19.6.46,1.48.82,2.62.72,2.33,1.77,5.75,3.14,10.17,2.71,8.88,6.66,21.79,11.61,38l.16.53-.43-.35-42-33.45h.3l-30.71,31.2,0-.36c15.69,13.12,33,27.12,51.61,40.82,6,4.42,12.11,8.7,18.22,12.68,3.07,2,6.13,3.91,9.28,5.65a54.14,54.14,0,0,0,9.64,4.46,15.08,15.08,0,0,0,5.14.71,22.56,22.56,0,0,0,2.6-.05c.43,0,.86,0,1.29-.07l1.28-.17a21.89,21.89,0,0,0,9.47-3.49,19.33,19.33,0,0,0,6.38-7.53,32.4,32.4,0,0,0,2.83-9.34c.17-.79.21-1.6.32-2.39l.13-1.2,0-1.2c0-.79,0-1.59,0-2.38s-.07-1.58-.11-2.37c-.12-3.16-.45-6.27-.73-9.33s-.69-6.07-1-9-.78-5.87-1.15-8.74c-1.6-11.44-3.31-22.08-5-31.77-3.33-19.37-6.43-35-8.91-45.69l-1.73-7.1c-.57-2-1.05-3.76-1.43-5.15s-.82-2.41-1.06-3.12-.35-1.07-.35-1.07.14.35.4,1.05.64,1.73,1.11,3.11.89,3.11,1.48,5.14,1.11,4.43,1.78,7.09c2.54,10.7,5.7,26.31,9.07,45.68,1.66,9.69,3.4,20.32,5,31.77.39,2.87.77,5.79,1.17,8.75s.72,6,1,9,.62,6.18.75,9.36c0,.79.11,1.58.12,2.38s0,1.61,0,2.42l0,1.21-.14,1.21c-.11.8-.15,1.62-.32,2.42a32.69,32.69,0,0,1-2.86,9.48,19.83,19.83,0,0,1-6.53,7.71,22.24,22.24,0,0,1-9.69,3.58l-1.3.18c-.44,0-.88.05-1.31.08a25.84,25.84,0,0,1-2.64.05,15.87,15.87,0,0,1-5.28-.73,56.17,56.17,0,0,1-9.75-4.5c-3.15-1.75-6.22-3.69-9.3-5.66-6.13-4-12.19-8.27-18.25-12.7-18.61-13.72-35.93-27.72-51.62-40.86l-.2-.18.19-.19L273,350.14l.14-.14.16.12,41.9,33.54-.27.18c-4.89-16.2-8.79-29.12-11.47-38-1.33-4.43-2.35-7.86-3.05-10.19l-.78-2.64C299.48,332.4,299.41,332.09,299.41,332.09Z" style="fill:#263238"></path><path d="M346.89,407a9.1,9.1,0,0,1-1-1.28c-.3-.43-.66-.95-1.12-1.52s-.93-1.27-1.54-2a57.21,57.21,0,0,0-4.39-4.77,62.31,62.31,0,0,0-6.08-5.09,59.57,59.57,0,0,0-6.76-4.16,54.24,54.24,0,0,0-5.91-2.66c-.85-.36-1.65-.6-2.34-.85s-1.3-.43-1.8-.57a9.34,9.34,0,0,1-1.53-.52,10.3,10.3,0,0,1,1.59.32c.5.12,1.12.27,1.82.5s1.52.44,2.39.77a51.26,51.26,0,0,1,6,2.58,56.07,56.07,0,0,1,6.84,4.17,55.18,55.18,0,0,1,6.11,5.17,50.27,50.27,0,0,1,4.35,4.88c.59.71,1.06,1.42,1.49,2s.78,1.13,1,1.57A10.85,10.85,0,0,1,346.89,407Z" style="fill:#263238"></path><path d="M313,277.07c0,.1-1.67.69-4.1,2.25a18.35,18.35,0,0,0-1.9,1.38,24.32,24.32,0,0,0-2,1.78,25.92,25.92,0,0,0-6.48,10.38,23.21,23.21,0,0,0-.71,2.6,18.53,18.53,0,0,0-.41,2.31c-.34,2.87-.1,4.66-.22,4.67a5.17,5.17,0,0,1-.17-1.25,9.6,9.6,0,0,1-.06-1.49,15.34,15.34,0,0,1,.09-2,18.51,18.51,0,0,1,.34-2.37,26,26,0,0,1,.68-2.66,27.29,27.29,0,0,1,2.64-5.7,27.84,27.84,0,0,1,4-4.88,23.4,23.4,0,0,1,2.1-1.78,17.23,17.23,0,0,1,2-1.34,15.39,15.39,0,0,1,1.73-.95,10.39,10.39,0,0,1,1.36-.6A4.83,4.83,0,0,1,313,277.07Z" style="fill:#263238"></path><g style="opacity:0.30000000000000004"><path d="M195.53,318.08a90.22,90.22,0,0,0-13.89,50.75l8-5.11C189.06,348.28,192.29,332.94,195.53,318.08Z"></path></g><path d="M135.81,363.54a11.62,11.62,0,0,1,.89-1.56l2.55-4.16c2.16-3.5,5.12-8.36,8.31-13.77s6-10.36,8-13.95l2.4-4.24a12,12,0,0,1,.93-1.53,12.46,12.46,0,0,1-.75,1.62c-.52,1-1.29,2.51-2.26,4.33-1.93,3.64-4.69,8.62-7.88,14s-6.21,10.24-8.45,13.7c-1.12,1.73-2,3.12-2.69,4.07A12.61,12.61,0,0,1,135.81,363.54Z" style="fill:#263238"></path><path d="M344.59,319.11a2,2,0,0,1-.45.22l-1.3.53c-1.14.46-2.8,1.06-4.87,1.76a135.81,135.81,0,0,1-33.46,6.67c-2.18.15-3.95.23-5.18.24l-1.4,0a1.77,1.77,0,0,1-.5,0,2.46,2.46,0,0,1,.49-.07l1.4-.11c1.22-.07,3-.21,5.16-.41a165.75,165.75,0,0,0,16.87-2.42,163.46,163.46,0,0,0,16.5-4.23c2.08-.65,3.76-1.2,4.92-1.6l1.34-.44A2.41,2.41,0,0,1,344.59,319.11Z" style="fill:#fff"></path><path d="M190.5,333.74a5.34,5.34,0,0,1-1-.52c-.65-.36-1.58-.92-2.7-1.63a92.09,92.09,0,0,1-8.41-6.11,90.77,90.77,0,0,1-7.66-7c-.92-1-1.65-1.76-2.13-2.32a5.34,5.34,0,0,1-.71-.91,4.9,4.9,0,0,1,.86.77l2.24,2.2c1.91,1.84,4.6,4.33,7.73,6.89s6.1,4.71,8.28,6.21l2.6,1.77A4.54,4.54,0,0,1,190.5,333.74Z" style="fill:#fff"></path><path d="M266.41,348.39s.85-17.81-.52-21.58l-8.2-22.59a2.19,2.19,0,0,0-3.45-1,6.79,6.79,0,0,0-2.56,5.91c.34,5.65,3.94,18.84,2.91,20.21S225,310.54,220.16,307.63s-8.57-2.75-9.42-.86.85,4.11,5.82,8.22,12.85,10.11,12.85,10.11-22.27-12.34-24.5-12.34-4.28,2.06-3.6,3.94S221.87,329,222.38,332s-17.53-8.75-21.06-9.85c-2.33-.73-4.34,3.74-1.6,6.14s20.35,12.17,20.44,13.3c.13,1.74-3.43.69-3.43.69S203.51,336.6,201,336.4c-2.23-.17-3.94,1.89-1.71,4.11s23.12,11.65,26.21,14.22,10.79,9.25,16.44,10.62,10.13,6.4,10.13,6.4l19.06-19.34Z" style="fill:#b5675e"></path><path d="M260.15,99.81a12.94,12.94,0,0,1,10.34-5c1.62,0,3.41.31,4.7-.67a10.41,10.41,0,0,0,2-2.84A6.56,6.56,0,0,1,286.49,90a7.88,7.88,0,0,0,2,1.62c3.29,1.29,6.08-4.93,9.36-3.61a7.41,7.41,0,0,0-3.16,3.11,3.36,3.36,0,0,0,.83,4.07c3.19,2.23,7.34-4,10.81-2.25,1.88,1,2.44,3.9,4.53,4.16a7.14,7.14,0,0,0,2.38-.44,5.39,5.39,0,0,1,6.19,4c.49,2.28-.36,5.22,1.54,6.58,1.17.83,2.78.5,4.18.13a14.14,14.14,0,0,1-.84,6.28,8.44,8.44,0,0,1,4,11,17.94,17.94,0,0,1,5.39,4.42c1.37,1.89,1.93,4.56.77,6.59a5.71,5.71,0,0,0-.74,1.4,3.21,3.21,0,0,0,.18,1.7c.68,2.11,1.86,4.1,2,6.31s-1.2,4.81-3.42,4.86c-.51,0-1.1-.1-1.5.23a1.49,1.49,0,0,0-.42,1.06,15.25,15.25,0,0,0,.84,4.69,6.34,6.34,0,0,1-.21,4.66c-.78,1.39-2.9,2.07-4,.94.9,2.38,1.79,4.77,2.69,7.15.53,1.42,1,3.15.08,4.34-1.23,1.55-3.87.72-5.11-.83s-1.75-3.59-3-5.11a11.49,11.49,0,0,1-1.55-1.87c-.31-.56-.46-1.26-1-1.61-1.08-.7-2.45.84-2.17,2.1s1.39,2.12,2.3,3,1.73,2.25,1.19,3.43c-.25.56-.79,1-1,1.55-.83,2,2.11,3.5,2.66,5.58.41,1.53-.57,3.07-1.57,4.31-1.22,1.51-3.74,2.9-4.79,1.27a17.83,17.83,0,0,1-.64-1.91,4.88,4.88,0,0,0-1.71-1.6,10,10,0,0,1-3.51-4.6c1.84,1.83,3.85,4.3,2.95,6.73a11,11,0,0,1-1.87,2.66c-1.3,1.68-2,3.78-3.28,5.48s-3.55,3-5.51,2.19a4.8,4.8,0,0,1-7.47,5.62,4.21,4.21,0,0,0-1.42-1,3.42,3.42,0,0,0-1.86.25,10.39,10.39,0,0,1-10.43-2.91l1.82-.88c-3.77-.07-7.71-.18-11-2s-5.79-5.78-4.55-9.34c.53-1.55,1.7-3.2.93-4.64-.53-1-1.76-1.35-2.85-1.6l-13.79-3.22c-2.23-.52-4.59-1.1-6.21-2.72s-2.08-4.62-.33-6.09a12.13,12.13,0,0,0-5.15-4.47c-2.35-1.09-5-1.4-7.38-2.37s-4.71-3-4.83-5.55,3.2-5,5.18-3.28c-.78-3.83-7.7-3.32-8.71-7.09-.83-3.07,3-5.13,4.78-7.75-.54-1-1.72-1.61-2.29-2.63-1.2-2.14.89-4.64,3-5.93s4.66-2.65,4.93-5.09-2.11-5-1.05-7.28a2.76,2.76,0,0,1,3.52-1.3c1.28-4.66,10-2.22,12-6.62a1.73,1.73,0,0,0,.17-1.11,1.81,1.81,0,0,0-.52-.83c-1.11-1.12-2.68-1.61-4-2.42s-2.55-2.31-2.15-3.82,3.16-1.78,3.3-.22a3.46,3.46,0,0,1,5.39.74c.93-1.42,3-1.63,4.59-.93a10.88,10.88,0,0,1,3.73,3.42" style="fill:#263238"></path><path d="M286.7,146.75c-2.23-6.2-7.63-10.74-13.36-14a16.76,16.76,0,0,0-7.75-2.66c-2.77-.06-5.72,1.3-6.78,3.86l1,4.51c.39,7.34,6.81,12.69,10.39,19.1,1.55,2.79,3,6.21,6,7.07a6.78,6.78,0,0,0,4.86-.7C287,161,288.93,153,286.7,146.75Z" style="fill:#009354"></path><path d="M291.85,180.22a14.72,14.72,0,0,0-4.07-18.44c2.16-3.75.44-8.76-2.76-11.67s-7.5-4.21-11.65-5.42c-3.59-9.48-15.6-14.72-25-10.92-6.18-6.7-17.17-6.26-25.45-2.45a23.38,23.38,0,0,1-6.22,2.36,36.39,36.39,0,0,1-4.9,0c-9,.13-16.8,7.63-19,16.34a16.49,16.49,0,0,1-1.31,4.1c-.92,1.64-2.53,2.77-3.83,4.12a14.22,14.22,0,0,0-3.84,11.21c.36,3.44,2,6.91,1,10.23-.49,1.66-1.61,3.12-1.93,4.82-.93,4.94,5,9,4.76,14,0,1-.36,2-.49,3a8.75,8.75,0,0,0,1.43,6c.91,1.34,2.23,2.5,2.56,4.08a14.66,14.66,0,0,1-.18,3.67c-.16,3,7.79,13.29,10.55,14.5l75.31-10.53a14.2,14.2,0,0,0,9.07-13.72,5.23,5.23,0,0,1,.29-2.87,6.14,6.14,0,0,1,1.86-1.64c4.45-3.32,4.05-10.06,2.72-15.46a6.94,6.94,0,0,1-.3-2.3A8.56,8.56,0,0,1,291.85,180.22Z" style="fill:#263238"></path><path d="M270.32,183.54c-1.76-13.35-12.39-27.4-26.58-31.94-9-2.86-15.46-1.92-19.92-1.78a30.83,30.83,0,0,0-17.18,6.36c-4,1.6-17.12,17.77-15.66,33,1.62,16.9,4.27,37.47,8.25,49.64,8,24.46,27.75,24.58,27.75,24.58s4.41,42,4.41,42l48.23-39.51Z" style="fill:#b5675e"></path><path d="M235.05,230.69a4.92,4.92,0,0,0-2-2.88,5.09,5.09,0,0,0-6.18.29c-1.73,1.47-1.74,3.68-1.13,6.1h0c1.19,1.33,2.11,2.67,3.9,2.64l.83-.06a5.57,5.57,0,0,0,3.58-1.87A5,5,0,0,0,235.05,230.69Z" style="fill:#894943"></path><path d="M226.38,235.24c.06-.06.35.21.94.55a5.43,5.43,0,0,0,2.68.73,4.79,4.79,0,0,0,3.54-1.68,4.74,4.74,0,0,0,1.06-2.08,4.44,4.44,0,0,0-.2-2.46,4.52,4.52,0,0,0-3.56-3,4.71,4.71,0,0,0-3.78,1,5.44,5.44,0,0,0-1.57,2.3c-.23.64-.27,1-.35,1s-.16-.4,0-1.13a5.14,5.14,0,0,1,1.46-2.73,5.32,5.32,0,0,1,4.41-1.43,5.47,5.47,0,0,1,2.63,1.08,5.57,5.57,0,0,1,1.78,2.47,5.47,5.47,0,0,1,.22,3,5.55,5.55,0,0,1-1.34,2.5,5.43,5.43,0,0,1-4.29,1.77,5.1,5.1,0,0,1-2.88-1.13C226.52,235.64,226.33,235.28,226.38,235.24Z" style="fill:#263238"></path><path d="M201.72,209.18a3.27,3.27,0,0,0,3.62,2.76,3.13,3.13,0,0,0,2.86-3.44,3.26,3.26,0,0,0-3.62-2.75A3.12,3.12,0,0,0,201.72,209.18Z" style="fill:#263238"></path><path d="M198.28,197.87c.47.36,2.62-1.83,6.08-2.38s6.29.78,6.59.3c.16-.22-.37-.91-1.6-1.54a9,9,0,0,0-5.36-.76,8.59,8.59,0,0,0-4.76,2.42C198.29,196.9,198.06,197.72,198.28,197.87Z" style="fill:#263238"></path><path d="M222.93,222c0-.2-2.23-.23-5.79-.11-.9.05-1.77,0-2-.58a4.5,4.5,0,0,1,.17-2.71c.49-2.28,1-4.66,1.54-7.16,2.1-10.17,3.47-18.48,3.06-18.56s-2.45,8.1-4.55,18.27q-.75,3.77-1.42,7.18a5.18,5.18,0,0,0,.09,3.55,2.29,2.29,0,0,0,1.67,1.06,6.34,6.34,0,0,0,1.53,0C220.76,222.52,223,222.19,222.93,222Z" style="fill:#263238"></path><path d="M227,263.38A64.9,64.9,0,0,0,259.28,249s-6.12,19.13-31.63,20.8Z" style="fill:#894943"></path><path d="M195.7,182.09c.72.76,3.28-.23,6.42-.47s5.84.17,6.4-.7c.24-.43-.23-1.2-1.44-1.87a10,10,0,0,0-10.33.94C195.69,180.88,195.38,181.72,195.7,182.09Z" style="fill:#263238"></path><path d="M238.36,204.31a3.27,3.27,0,0,1-2.72,3.65,3.12,3.12,0,0,1-3.69-2.52,3.25,3.25,0,0,1,2.72-3.64A3.11,3.11,0,0,1,238.36,204.31Z" style="fill:#263238"></path><path d="M243,192.9c-.35.47-3-1.05-6.51-.61s-5.82,2.48-6.25,2.1c-.21-.16.11-1,1.12-1.92a9,9,0,0,1,5-2.21,8.68,8.68,0,0,1,5.24,1C242.71,192,243.16,192.68,243,192.9Z" style="fill:#263238"></path><path d="M242.05,175.46c-.59.88-3.38.38-6.62.74s-5.9,1.25-6.63.5c-.32-.36,0-1.21,1.12-2.1a10,10,0,0,1,5.21-1.95,9.84,9.84,0,0,1,5.46.95C241.83,174.27,242.3,175,242.05,175.46Z" style="fill:#263238"></path><path d="M270.08,208c-.3-1.87,1.16-6.62,3-7.2,4.81-1.56,13.76-2.59,15.84,9.92,2.85,17.1-14.9,16.43-15,15.95S271.09,214.43,270.08,208Z" style="fill:#b5675e"></path><path d="M277.54,219.61c.07-.07.33.15.88.3a3,3,0,0,0,2.23-.32c1.7-1,2.74-4.09,2.31-7.18a9.94,9.94,0,0,0-1.55-4.13,3.48,3.48,0,0,0-2.62-1.91,1.53,1.53,0,0,0-1.62,1.11c-.15.51,0,.84-.07.88s-.41-.22-.39-1a1.89,1.89,0,0,1,.49-1.19,2.29,2.29,0,0,1,1.57-.71,4.25,4.25,0,0,1,3.56,2.13,10.27,10.27,0,0,1,1.82,4.6c.47,3.46-.76,7-3.11,8.11a3.28,3.28,0,0,1-2.8,0C277.64,220,277.49,219.65,277.54,219.61Z" style="fill:#894943"></path><path d="M187.22,190c3.11-2.72,4.85-6,4-10,2.4.32,4.26-3,5.28-5.2s2.5-3.46,2-5.83a2.64,2.64,0,0,1,0-1.42c.24-.71,1-1.06,1.69-1.39a11.64,11.64,0,0,0,6.29-9.17,24.62,24.62,0,0,0,12,.07,9.4,9.4,0,0,0,15.58-3.18,8.45,8.45,0,0,0,6.22,3.21,24.79,24.79,0,0,0,7.16-.74,10,10,0,0,0,8.23,10.09,2.43,2.43,0,0,1,1.75.69,2.54,2.54,0,0,1,0,1.94,7.82,7.82,0,0,0,6.74,9,5.83,5.83,0,0,0,1.95,8.94c.69.28,1.57.6,1.59,1.34a1.65,1.65,0,0,1-.26.79c-1,1.9-2,3.95-1.8,6.09s2,4.28,4.12,4a5.6,5.6,0,0,0-1.58,4.1c.21,1.49,2,2.77,3.26,2,.56-.32,8.81-3.36,9.11-3.92,3.79-7.35-3.45-13.64-5.23-21.72a53.79,53.79,0,0,0-11.08-22,39.49,39.49,0,0,0-7.39-7.28,52.89,52.89,0,0,0-10.52-5.43c-4.75-2-9.63-4-14.77-4.36-9.58-.71-18.65,4.18-26.63,9.53a40.65,40.65,0,0,0-8.43,7,36.91,36.91,0,0,0-6.2,11.48c-2.19,5.93-3.79,12.2-3.41,18.51" style="fill:#263238"></path><path d="M182.91,184.55a6.69,6.69,0,0,1,.63-2c.27-.63.68-1.37,1-2.3a7.93,7.93,0,0,0,.45-3.35,25.21,25.21,0,0,0-.74-4.22,19.27,19.27,0,0,1-.67-5.11,14.52,14.52,0,0,1,1.4-5.75,13.83,13.83,0,0,1,1.72-2.75,21.13,21.13,0,0,1,2.39-2.44,10.89,10.89,0,0,0,2.25-2.66,14,14,0,0,0,1.11-3.47,23.21,23.21,0,0,1,8.94-13.43,20.48,20.48,0,0,1,3.88-2.2,18.18,18.18,0,0,1,4.42-1.22,20,20,0,0,1,2.33-.18c.79,0,1.57,0,2.34,0a11.06,11.06,0,0,0,4.58-.71c1.49-.55,2.9-1.34,4.42-2a30.19,30.19,0,0,1,4.72-1.62,29.78,29.78,0,0,1,5-.84,26.33,26.33,0,0,1,5.17.13,17,17,0,0,1,9.51,4.33l.77.74-.29-.06A20.1,20.1,0,0,1,273.6,144.6l-.16-.15a54,54,0,0,1,6.5,2.22,18.21,18.21,0,0,1,5.59,3.61,11.88,11.88,0,0,1,3.16,5.56,8.19,8.19,0,0,1-.72,6l-.06-.28a14.36,14.36,0,0,1,5.32,8.17,14.68,14.68,0,0,1-.44,8.79,14.51,14.51,0,0,1-.87,1.87c-.33.59-.68,1.14-.94,1.72a3.66,3.66,0,0,0-.34,1.77,9.69,9.69,0,0,0,.33,1.77,28.81,28.81,0,0,1,.84,6.53,13.64,13.64,0,0,1-.91,5.21,8.55,8.55,0,0,1-2.22,3.2c-.79.72-1.54,1.07-1.92,1.45a4.4,4.4,0,0,0-.55.62,2,2,0,0,1,.5-.66c.38-.41,1.12-.79,1.88-1.51a8.57,8.57,0,0,0,2.14-3.17,13.75,13.75,0,0,0,.83-5.14,27.92,27.92,0,0,0-.89-6.46,11.5,11.5,0,0,1-.35-1.82,4.11,4.11,0,0,1,.36-1.92,19.9,19.9,0,0,1,.95-1.76,13.24,13.24,0,0,0,.83-1.83,14.32,14.32,0,0,0,.39-8.56,14,14,0,0,0-5.2-7.92l-.16-.11.1-.17a7.75,7.75,0,0,0,.66-5.73,11.44,11.44,0,0,0-3.05-5.33,18.06,18.06,0,0,0-5.45-3.5,56.81,56.81,0,0,0-6.45-2.19l-.12,0,0-.12A19.63,19.63,0,0,0,248.48,134l-.16.06-.13-.12-.74-.72a16.56,16.56,0,0,0-9.23-4.19,26,26,0,0,0-5.06-.14,30,30,0,0,0-4.93.82,30.58,30.58,0,0,0-4.64,1.59c-1.49.63-2.92,1.43-4.45,2a11.34,11.34,0,0,1-2.35.63,14,14,0,0,1-2.41.11c-.79,0-1.56-.06-2.33-.06a19.11,19.11,0,0,0-2.27.18,18.34,18.34,0,0,0-4.3,1.17,20.6,20.6,0,0,0-3.79,2.14,22.85,22.85,0,0,0-8.82,13.15,14.21,14.21,0,0,1-1.16,3.57,11.34,11.34,0,0,1-2.34,2.74,20.42,20.42,0,0,0-2.36,2.39,13.43,13.43,0,0,0-1.7,2.68,14.2,14.2,0,0,0-1.41,5.61,19,19,0,0,0,.62,5,25.14,25.14,0,0,1,.71,4.27,8,8,0,0,1-.52,3.42c-.37.93-.79,1.67-1.07,2.28a10.12,10.12,0,0,0-.58,1.43C183,184.38,182.92,184.55,182.91,184.55Z" style="fill:#455a64"></path><path d="M239.75,131.27s-.49-.19-1.39-.47a11.7,11.7,0,0,0-3.9-.5A10.93,10.93,0,0,0,229,132a11.3,11.3,0,0,0-4.4,5.44,9.88,9.88,0,0,0-.54,2.07,2.15,2.15,0,0,0,.4,1.79l.51.51-.72-.09A7.2,7.2,0,0,0,219,143.2a6.88,6.88,0,0,0-2.41,3.62,7.74,7.74,0,0,0-.23,2.93,10.74,10.74,0,0,1,.16,1.07,1.28,1.28,0,0,1-.12-.26,6.15,6.15,0,0,1-.21-.78,7.36,7.36,0,0,1,.08-3,7.19,7.19,0,0,1,2.45-3.89,7.56,7.56,0,0,1,5.53-1.62l-.21.43a2.65,2.65,0,0,1-.56-2.2,10.54,10.54,0,0,1,.57-2.19,11.61,11.61,0,0,1,4.63-5.67,11.2,11.2,0,0,1,9.73-1,8.77,8.77,0,0,1,1,.45C239.65,131.18,239.76,131.25,239.75,131.27Z" style="fill:#455a64"></path><path d="M270.62,146.56a2.62,2.62,0,0,1-.5.71,10.81,10.81,0,0,1-1.73,1.65,8.42,8.42,0,0,1-3.25,1.56,6.16,6.16,0,0,1-4.46-.62l.37-.11c-.12.25-.26.51-.39.78s-.32.51-.48.76a10.31,10.31,0,0,1-3.86,3.34,10.65,10.65,0,0,1-4,1.15,9.62,9.62,0,0,1-2.79-.19,3.29,3.29,0,0,1-1-.34,14.93,14.93,0,0,0,3.73.16,10.86,10.86,0,0,0,3.81-1.21,10.29,10.29,0,0,0,3.65-3.2c.16-.25.32-.48.46-.73s.25-.49.37-.73l.13-.26.24.14A5.81,5.81,0,0,0,265,150a8.33,8.33,0,0,0,3.15-1.39C269.8,147.48,270.55,146.5,270.62,146.56Z" style="fill:#455a64"></path><path d="M282.16,161s0,.11,0,.33a3,3,0,0,1-.25.88,4.63,4.63,0,0,1-2.47,2.27,8.84,8.84,0,0,1-5,.24c-.92-.18-1.87-.35-2.87-.64a4.74,4.74,0,0,1-2.7-1.79l-.15-.26.42.06a19.67,19.67,0,0,1-4.6,3.85,8.84,8.84,0,0,1-4.73,1.25,6.35,6.35,0,0,1-3.17-.88,3.58,3.58,0,0,1-.72-.54c-.15-.14-.22-.22-.21-.23s.35.25,1,.59a6.69,6.69,0,0,0,3.08.7,8.91,8.91,0,0,0,4.49-1.3,20.5,20.5,0,0,0,4.45-3.79l.24-.26.19.32.12.21a4.31,4.31,0,0,0,2.42,1.58,27.45,27.45,0,0,0,2.8.65,8.66,8.66,0,0,0,4.75-.1,4.63,4.63,0,0,0,2.43-2A6.13,6.13,0,0,0,282.16,161Z" style="fill:#455a64"></path><path d="M290.89,97s-.29.06-.79.27a4,4,0,0,0-1.72,1.53,5.44,5.44,0,0,0-.77,3.48,16.16,16.16,0,0,0,1.37,4.57l.11.26-.28,0a9.83,9.83,0,0,0-5.64,2.74,7.66,7.66,0,0,0-2.3,6.51,7.1,7.1,0,0,0,3.39,5.31l.64.36-.73.11a8.93,8.93,0,0,0-6,3.87,8.6,8.6,0,0,0-1.37,5.6,9.5,9.5,0,0,0,1.17,3.69c.46.8.8,1.18.76,1.2s-.1-.08-.26-.26a5.39,5.39,0,0,1-.64-.85,9,9,0,0,1,0-9.61,9.34,9.34,0,0,1,6.34-4.14l-.09.47a7.59,7.59,0,0,1-3.66-5.69,7.79,7.79,0,0,1,.43-3.84,8.77,8.77,0,0,1,2-3.09,10.24,10.24,0,0,1,5.94-2.82l-.18.3a15.52,15.52,0,0,1-1.33-4.7,5.68,5.68,0,0,1,.92-3.65,3.87,3.87,0,0,1,1.88-1.51,2.24,2.24,0,0,1,.62-.15A.63.63,0,0,1,290.89,97Z" style="fill:#455a64"></path><path d="M327.28,129.29s-.08.09-.25.21a8.71,8.71,0,0,1-.79.53,12.26,12.26,0,0,1-3.33,1.32,13.57,13.57,0,0,1-5.48.2,13.09,13.09,0,0,1-6.37-2.87l.38-.09a11,11,0,0,1-6.87,6.5,8.37,8.37,0,0,1-9.24-3.19l.44-.09a7,7,0,0,1-1.6,3.23,9.5,9.5,0,0,1-2.56,2,12.79,12.79,0,0,1-5.13,1.37,25.24,25.24,0,0,1-3.45,0,7.16,7.16,0,0,1-1.22-.13,7.27,7.27,0,0,1,1.23,0,30.64,30.64,0,0,0,3.42-.13,12.58,12.58,0,0,0,5-1.43,7.47,7.47,0,0,0,3.88-5l.11-.6.33.51a7.93,7.93,0,0,0,8.69,3,10.62,10.62,0,0,0,6.57-6.18l.13-.31.26.21a12.83,12.83,0,0,0,6.12,2.84,13.84,13.84,0,0,0,5.34-.09A15.55,15.55,0,0,0,327.28,129.29Z" style="fill:#455a64"></path><path d="M313.27,157.17s0,.13-.15.34a1.79,1.79,0,0,1-.9.58,7.92,7.92,0,0,1-3.89,0,9.38,9.38,0,0,1-4.92-2.95,9.62,9.62,0,0,1-2.34-6.61v-.06l.42.23a11.32,11.32,0,0,1-6.72,2,12.66,12.66,0,0,1-5.55-1.42,13.83,13.83,0,0,1-3.16-2.23,5.25,5.25,0,0,1-.95-1,21.67,21.67,0,0,0,4.27,2.94,12.68,12.68,0,0,0,5.4,1.27,11,11,0,0,0,6.4-2l.42-.3v.58a9.29,9.29,0,0,0,2.18,6.27,9.16,9.16,0,0,0,4.65,2.91,8.4,8.4,0,0,0,3.74.2A1.83,1.83,0,0,0,313.27,157.17Z" style="fill:#455a64"></path><path d="M253.56,103.51a14.7,14.7,0,0,0,.06,5.38,11.65,11.65,0,0,0,8.44,8.93,11.92,11.92,0,0,0,4.07.4l.33,0,0,.32a15.09,15.09,0,0,0,.24,5.62,15.83,15.83,0,0,0,1.66,4.19,11.65,11.65,0,0,0,.94,1.42,1.35,1.35,0,0,0,1,.56.84.84,0,0,0,.65-.32c.11-.14.11-.25.13-.24s0,.11-.05.29a.94.94,0,0,1-.71.44,1.47,1.47,0,0,1-1.23-.56,10.26,10.26,0,0,1-1-1.42,15.47,15.47,0,0,1-1.81-4.25,15.17,15.17,0,0,1-.31-5.81l.27.29a12,12,0,0,1-4.26-.4,11.87,11.87,0,0,1-8.67-9.35,12,12,0,0,1-.07-4,9.23,9.23,0,0,1,.25-1.07C253.5,103.63,253.54,103.51,253.56,103.51Z" style="fill:#455a64"></path><path d="M284.25,228.57a5.6,5.6,0,1,1-5.6-5.61A5.6,5.6,0,0,1,284.25,228.57Z" style="fill:#455a64"></path></g></svg>