<svg xmlns="http://www.w3.org/2000/svg" width="800" height="267" viewBox="0 0 800 267" fill="none">
<g clip-path="url(#clip0_6_64)">
<path d="M736.293 0.00086775H63.743C61.2914 0.00086775 58.8693 0.00086775 56.4243 0.0142178C54.3776 0.0275678 52.3471 0.0663495 50.2808 0.0989902C45.7916 0.151735 41.313 0.546057 36.8839 1.27853C32.461 2.02695 28.1767 3.43793 24.1758 5.46375C20.1798 7.50672 16.5286 10.1613 13.3545 13.3313C10.1638 16.4924 7.5041 20.1461 5.47767 24.1521C3.44565 28.1501 2.03664 32.4343 1.2993 36.8567C0.55496 41.2736 0.154421 45.7414 0.101284 50.2201C0.0392432 52.2667 0.0326915 54.32 0 56.3668V210.655C0.0326915 212.727 0.0392432 214.735 0.101284 216.808C0.154438 221.287 0.554976 225.754 1.2993 230.171C2.0346 234.596 3.44369 238.883 5.47767 242.882C7.50317 246.875 10.1633 250.514 13.3545 253.658C16.5165 256.842 20.1701 259.498 24.1758 261.525C28.1767 263.557 32.4605 264.976 36.8839 265.736C41.3138 266.463 45.7919 266.857 50.2808 266.916C52.3471 266.961 54.3776 266.988 56.4243 266.988C58.8693 267.001 61.2916 267.001 63.743 267.001H736.293C738.696 267.001 741.137 267.001 743.54 266.988C745.577 266.988 747.666 266.961 749.703 266.916C754.184 266.86 758.653 266.466 763.074 265.736C767.512 264.971 771.811 263.552 775.831 261.525C779.833 259.497 783.483 256.84 786.643 253.658C789.826 250.502 792.491 246.865 794.542 242.882C796.561 238.88 797.956 234.593 798.681 230.171C799.426 225.754 799.841 221.287 799.922 216.808C799.948 214.735 799.948 212.727 799.948 210.655C800 208.229 800 205.818 800 203.353V63.6545C800 61.2101 800 58.7852 799.948 56.3668C799.948 54.32 799.948 52.2666 799.922 50.2198C799.841 45.7408 799.426 41.274 798.681 36.8565C797.954 32.4366 796.559 28.1527 794.542 24.1518C790.415 16.1223 783.872 9.58634 775.831 5.46315C771.811 3.44228 767.511 2.03167 763.074 1.27793C758.654 0.542229 754.184 0.14777 749.703 0.0980557C747.666 0.0654817 745.577 0.0263662 743.54 0.01335C741.137 0 738.696 0.00086775 736.293 0.00086775Z" fill="#A6A6A6"/>
<path d="M56.4569 261.159C54.42 261.159 52.4323 261.133 50.4114 261.088C46.2249 261.034 42.0481 260.67 37.9155 259.999C34.0619 259.337 30.3289 258.104 26.8395 256.342C23.3821 254.595 20.2287 252.303 17.5 249.556C14.7319 246.841 12.4273 243.693 10.6775 240.235C8.90852 236.754 7.68425 233.024 7.04739 229.173C6.35962 225.035 5.98751 220.851 5.93427 216.657C5.89188 215.249 5.8364 210.562 5.8364 210.562V56.366C5.8364 56.366 5.89549 51.7508 5.9346 50.3949C5.98559 46.2076 6.35553 42.0302 7.04124 37.8989C7.67928 34.0375 8.9045 30.2962 10.6745 26.8043C12.4178 23.3488 14.7096 20.1976 17.4611 17.473C20.2095 14.7225 23.373 12.4195 26.8363 10.648C30.3176 8.89174 34.0436 7.6678 37.8893 7.01724C42.0356 6.34017 46.2268 5.97411 50.4278 5.92214L56.4602 5.84064H743.507L749.612 5.92541C753.774 5.9748 757.928 6.33759 762.036 7.0107C765.92 7.66942 769.685 8.9019 773.206 10.6676C780.145 14.2377 785.79 19.8859 789.352 26.8206C791.093 30.2883 792.3 33.9992 792.93 37.8272C793.623 41.9924 794.012 46.2026 794.091 50.4243C794.111 52.3147 794.111 54.3452 794.111 56.366C794.164 58.8691 794.164 61.2516 794.164 63.6537V203.353C794.164 205.778 794.164 208.144 794.111 210.53C794.111 212.7 794.111 214.689 794.085 216.735C794.007 220.882 793.625 225.017 792.942 229.107C792.318 232.986 791.101 236.746 789.332 240.255C787.57 243.675 785.279 246.797 782.542 249.504C779.811 252.266 776.652 254.571 773.187 256.329C769.676 258.105 765.916 259.342 762.036 259.999C757.903 260.673 753.726 261.037 749.539 261.088C747.581 261.133 745.531 261.159 743.54 261.159L736.293 261.173L56.4569 261.159Z" fill="black"/>
<path d="M165.589 135.507C165.661 129.936 167.143 124.473 169.898 119.627C172.653 114.781 176.59 110.71 181.344 107.792C178.324 103.486 174.34 99.9415 169.708 97.4414C165.076 94.9413 159.924 93.5539 154.661 93.3895C143.435 92.213 132.552 100.097 126.831 100.097C120.999 100.097 112.191 93.5063 102.707 93.7012C96.5717 93.8991 90.5927 95.6803 85.3521 98.8714C80.1116 102.062 75.7883 106.554 72.8035 111.91C59.874 134.26 69.5183 167.108 81.9037 185.175C88.1004 194.022 95.3425 203.904 104.819 203.553C114.092 203.169 117.555 197.649 128.748 197.649C139.838 197.649 143.087 203.553 152.756 203.33C162.706 203.169 168.975 194.444 174.954 185.514C179.407 179.21 182.833 172.244 185.106 164.871C179.325 162.43 174.391 158.344 170.921 153.122C167.45 147.9 165.596 141.774 165.589 135.507Z" fill="white"/>
<path d="M147.327 81.5077C152.753 75.0048 155.426 66.6465 154.778 58.2078C146.49 59.077 138.833 63.0323 133.335 69.2857C130.646 72.3406 128.587 75.8946 127.275 79.7446C125.963 83.5945 125.424 87.6649 125.688 91.723C129.834 91.7656 133.936 90.8684 137.684 89.0989C141.432 87.3295 144.73 84.7339 147.327 81.5077Z" fill="white"/>
<path d="M282.807 181.157H251.162L243.563 203.561H230.159L260.133 120.671H274.058L304.032 203.561H290.4L282.807 181.157ZM254.44 170.819H279.523L267.158 134.458H266.812L254.44 170.819Z" fill="white"/>
<path d="M368.764 173.348C368.764 192.128 358.696 204.194 343.504 204.194C339.656 204.395 335.828 203.51 332.46 201.64C329.092 199.77 326.32 196.991 324.46 193.621H324.172V223.554H311.748V143.128H323.774V153.179H324.003C325.948 149.826 328.767 147.061 332.161 145.179C335.555 143.298 339.396 142.371 343.276 142.496C358.637 142.496 368.764 154.62 368.764 173.348ZM355.993 173.348C355.993 161.113 349.661 153.069 339.998 153.069C330.505 153.069 324.12 161.282 324.12 173.348C324.12 185.525 330.505 193.679 339.998 193.679C349.661 193.679 355.993 185.694 355.993 173.348Z" fill="white"/>
<path d="M435.382 173.348C435.382 192.128 425.315 204.194 410.123 204.194C406.274 204.395 402.447 203.51 399.079 201.64C395.711 199.77 392.938 196.991 391.079 193.621H390.791V223.554H378.367V143.128H390.393V153.179H390.621C392.567 149.826 395.386 147.061 398.78 145.18C402.173 143.298 406.014 142.371 409.894 142.496C425.256 142.496 435.382 154.62 435.382 173.348ZM422.612 173.348C422.612 161.113 416.279 153.069 406.617 153.069C397.124 153.069 390.739 161.282 390.739 173.348C390.739 185.525 397.124 193.679 406.617 193.679C416.279 193.679 422.612 185.694 422.612 173.348Z" fill="white"/>
<path d="M479.412 180.466C480.332 188.686 488.33 194.083 499.259 194.083C509.731 194.083 517.265 188.686 517.265 181.274C517.265 174.84 512.721 170.988 501.962 168.348L491.203 165.76C475.958 162.084 468.881 154.965 468.881 143.414C468.881 129.113 481.364 119.289 499.089 119.289C516.632 119.289 528.658 129.113 529.063 143.414H516.521C515.77 135.142 508.921 130.149 498.913 130.149C488.904 130.149 482.056 135.201 482.056 142.554C482.056 148.414 486.43 151.862 497.131 154.502L506.277 156.745C523.311 160.767 530.388 167.598 530.388 179.723C530.388 195.23 518.016 204.943 498.338 204.943C479.927 204.943 467.497 195.458 466.694 180.466L479.412 180.466Z" fill="white"/>
<path d="M557.201 128.826V143.128H568.711V152.951H557.201V186.268C557.201 191.443 559.506 193.855 564.566 193.855C565.932 193.831 567.296 193.736 568.653 193.568V203.333C566.378 203.757 564.066 203.95 561.752 203.907C549.497 203.907 544.718 199.311 544.718 187.591V152.951H535.918V143.128H544.718V128.826H557.201Z" fill="white"/>
<path d="M575.377 173.348C575.377 154.333 586.594 142.385 604.084 142.385C621.633 142.385 632.797 154.333 632.797 173.348C632.797 192.415 621.692 204.311 604.084 204.311C586.482 204.311 575.377 192.415 575.377 173.348ZM620.138 173.348C620.138 160.304 614.151 152.606 604.084 152.606C594.017 152.606 588.037 160.363 588.037 173.348C588.037 186.444 594.017 194.083 604.084 194.083C614.151 194.083 620.138 186.444 620.138 173.348Z" fill="white"/>
<path d="M643.041 143.128H654.89V153.414H655.178C655.979 150.201 657.864 147.362 660.516 145.374C663.167 143.386 666.423 142.369 669.737 142.495C671.168 142.49 672.596 142.646 673.993 142.958V154.561C672.186 154.01 670.3 153.757 668.411 153.812C666.606 153.739 664.807 154.056 663.136 154.743C661.466 155.43 659.964 156.469 658.734 157.79C657.505 159.111 656.575 160.682 656.011 162.396C655.447 164.109 655.26 165.924 655.465 167.716V203.561H643.04L643.041 143.128Z" fill="white"/>
<path d="M731.276 185.811C729.604 196.782 718.904 204.311 705.213 204.311C687.605 204.311 676.676 192.532 676.676 173.635C676.676 154.679 687.664 142.385 704.691 142.385C721.437 142.385 731.968 153.87 731.968 172.194V176.444H689.218V177.194C689.021 179.418 689.299 181.659 690.036 183.767C690.773 185.875 691.95 187.803 693.49 189.422C695.03 191.041 696.897 192.314 698.968 193.157C701.039 194 703.266 194.394 705.501 194.312C708.436 194.586 711.383 193.907 713.901 192.376C716.42 190.844 718.376 188.542 719.478 185.811L731.276 185.811ZM689.277 167.775H719.537C719.649 165.775 719.345 163.773 718.645 161.896C717.945 160.019 716.865 158.307 715.47 156.867C714.076 155.426 712.399 154.289 710.544 153.527C708.689 152.765 706.696 152.393 704.691 152.436C702.668 152.424 700.662 152.812 698.79 153.578C696.918 154.344 695.216 155.473 693.783 156.899C692.35 158.325 691.214 160.02 690.44 161.887C689.667 163.753 689.271 165.754 689.277 167.775Z" fill="white"/>
<path d="M252.883 58.2794C255.487 58.0928 258.101 58.4857 260.535 59.4297C262.969 60.3738 265.164 61.8455 266.959 63.7387C268.755 65.6319 270.107 67.8994 270.919 70.3776C271.73 72.8559 271.981 75.4831 271.653 78.0697C271.653 90.7939 264.765 98.1081 252.883 98.1081H238.474V58.2794H252.883ZM244.669 92.4754H252.19C254.052 92.5865 255.914 92.2818 257.643 91.5835C259.371 90.8852 260.922 89.8109 262.182 88.4387C263.442 87.0666 264.38 85.4312 264.927 83.6515C265.475 81.8718 265.618 79.9927 265.346 78.1509C265.598 76.3164 265.44 74.4489 264.885 72.6823C264.329 70.9156 263.389 69.2936 262.132 67.9324C260.874 66.5711 259.331 65.5044 257.612 64.8086C255.894 64.1128 254.042 63.8052 252.19 63.9078H244.669V92.4754Z" fill="white"/>
<path d="M278.651 83.066C278.462 81.0907 278.688 79.0978 279.316 77.215C279.943 75.3321 280.958 73.601 282.294 72.1327C283.631 70.6643 285.26 69.491 287.078 68.6882C288.895 67.8854 290.861 67.4706 292.848 67.4706C294.835 67.4706 296.801 67.8854 298.618 68.6882C300.436 69.491 302.065 70.6643 303.402 72.1327C304.738 73.601 305.753 75.3321 306.38 77.215C307.008 79.0978 307.234 81.0907 307.045 83.066C307.237 85.0433 307.014 87.039 306.388 88.9248C305.762 90.8107 304.748 92.5449 303.411 94.0162C302.074 95.4875 300.444 96.6632 298.625 97.4677C296.805 98.2723 294.838 98.688 292.848 98.688C290.858 98.688 288.89 98.2723 287.071 97.4677C285.252 96.6632 283.621 95.4875 282.284 94.0162C280.947 92.5449 279.933 90.8107 279.308 88.9248C278.682 87.039 278.458 85.0433 278.651 83.066ZM300.934 83.066C300.934 76.5507 298.002 72.7406 292.858 72.7406C287.694 72.7406 284.788 76.5507 284.788 83.066C284.788 89.6335 287.694 93.4142 292.858 93.4142C298.002 93.4142 300.934 89.6073 300.934 83.066Z" fill="white"/>
<path d="M344.787 98.1075H338.624L332.402 75.9705H331.932L325.736 98.1075H319.632L311.334 68.0504H317.36L322.753 90.9857H323.197L329.386 68.0504H335.085L341.275 90.9857H341.745L347.111 68.0504H353.052L344.787 98.1075Z" fill="white"/>
<path d="M360.031 68.0504H365.751V72.8252H366.195C366.948 71.1103 368.218 69.6727 369.828 68.7128C371.439 67.7529 373.309 67.3185 375.178 67.4702C376.643 67.3603 378.114 67.5808 379.481 68.1154C380.849 68.6501 382.079 69.4851 383.08 70.5588C384.08 71.6324 384.826 72.9171 385.262 74.3176C385.698 75.7182 385.813 77.1987 385.598 78.6495V98.1071H379.657V80.1391C379.657 75.3089 377.554 72.9068 373.161 72.9068C372.166 72.8605 371.173 73.0295 370.25 73.4022C369.327 73.7748 368.496 74.3424 367.813 75.0658C367.131 75.7893 366.613 76.6516 366.295 77.5937C365.977 78.5357 365.867 79.5352 365.973 80.5237V98.1075H360.031L360.031 68.0504Z" fill="white"/>
<path d="M395.064 56.317H401.006V98.1074H395.064V56.317Z" fill="white"/>
<path d="M409.264 83.066C409.075 81.0906 409.302 79.0975 409.929 77.2147C410.557 75.3318 411.571 73.6006 412.908 72.1322C414.245 70.6638 415.874 69.4905 417.692 68.6877C419.51 67.8848 421.475 67.4701 423.463 67.4701C425.45 67.4701 427.416 67.8848 429.233 68.6877C431.051 69.4905 432.68 70.6638 434.017 72.1322C435.354 73.6006 436.369 75.3318 436.996 77.2147C437.624 79.0975 437.85 81.0906 437.661 83.066C437.853 85.0433 437.63 87.0391 437.004 88.9249C436.378 90.8108 435.364 92.545 434.027 94.0162C432.689 95.4874 431.059 96.6631 429.239 97.4676C427.42 98.2722 425.452 98.6878 423.463 98.6878C421.473 98.6878 419.505 98.2722 417.686 97.4676C415.866 96.6631 414.236 95.4874 412.899 94.0162C411.561 92.545 410.547 90.8108 409.921 88.9249C409.296 87.0391 409.072 85.0433 409.264 83.066ZM431.547 83.066C431.547 76.5507 428.615 72.7406 423.471 72.7406C418.307 72.7406 415.402 76.5507 415.402 83.066C415.402 89.6335 418.307 93.4142 423.471 93.4142C428.615 93.4142 431.547 89.6073 431.547 83.066Z" fill="white"/>
<path d="M443.915 89.6073C443.915 84.1969 447.95 81.0778 455.112 80.6345L463.266 80.1652V77.5708C463.266 74.3963 461.164 72.6037 457.103 72.6037C453.787 72.6037 451.489 73.8194 450.829 75.9445H445.078C445.685 70.7818 450.549 67.4704 457.378 67.4704C464.925 67.4704 469.181 71.2217 469.181 77.5708V98.1075H463.462V93.8835H462.992C462.038 95.3987 460.698 96.6339 459.11 97.463C457.521 98.2921 455.741 98.6854 453.95 98.6028C452.686 98.734 451.409 98.5994 450.2 98.2076C448.992 97.8158 447.879 97.1755 446.934 96.3279C445.988 95.4804 445.231 94.4445 444.711 93.287C444.192 92.1294 443.92 90.8759 443.915 89.6073ZM463.266 87.039V84.5261L455.915 84.9955C451.769 85.2725 449.889 86.6805 449.889 89.3303C449.889 92.0354 452.239 93.6097 455.471 93.6097C456.418 93.7054 457.375 93.6099 458.284 93.329C459.193 93.048 460.037 92.5873 460.764 91.9743C461.491 91.3612 462.088 90.6084 462.518 89.7605C462.947 88.9127 463.202 87.9871 463.266 87.039Z" fill="white"/>
<path d="M476.99 83.066C476.99 73.5685 481.88 67.5518 489.486 67.5518C491.367 67.4653 493.234 67.9152 494.869 68.849C496.504 69.7828 497.838 71.1619 498.717 72.8251H499.161V56.317H505.102V98.1074H499.409V93.3586H498.939C497.993 95.0106 496.611 96.3726 494.945 97.2969C493.279 98.2213 491.391 98.6729 489.486 98.6028C481.828 98.6031 476.99 92.5863 476.99 83.066ZM483.127 83.066C483.127 89.4411 486.137 93.2773 491.17 93.2773C496.178 93.2773 499.272 89.3858 499.272 83.0921C499.272 76.8277 496.145 72.8807 491.17 72.8807C486.169 72.8807 483.127 76.743 483.127 83.066Z" fill="white"/>
<path d="M529.683 83.066C529.494 81.0907 529.72 79.0978 530.347 77.215C530.975 75.3321 531.989 73.601 533.326 72.1327C534.663 70.6643 536.292 69.491 538.109 68.6882C539.927 67.8854 541.892 67.4706 543.88 67.4706C545.867 67.4706 547.832 67.8854 549.65 68.6882C551.467 69.491 553.096 70.6643 554.433 72.1327C555.77 73.601 556.784 75.3321 557.412 77.215C558.039 79.0978 558.265 81.0907 558.076 83.066C558.269 85.0433 558.045 87.039 557.42 88.9248C556.794 90.8107 555.78 92.5449 554.443 94.0162C553.106 95.4875 551.475 96.6632 549.656 97.4677C547.837 98.2723 545.869 98.688 543.88 98.688C541.89 98.688 539.922 98.2723 538.103 97.4677C536.284 96.6632 534.653 95.4875 533.316 94.0162C531.979 92.5449 530.965 90.8107 530.339 88.9248C529.714 87.039 529.49 85.0433 529.683 83.066ZM551.965 83.066C551.965 76.5507 549.034 72.7406 543.889 72.7406C538.725 72.7406 535.82 76.5507 535.82 83.066C535.82 89.6335 538.725 93.4142 543.889 93.4142C549.034 93.4142 551.965 89.6073 551.965 83.066Z" fill="white"/>
<path d="M566.048 68.0504H571.767V72.8252H572.211C572.964 71.1103 574.234 69.6727 575.844 68.7128C577.455 67.7529 579.325 67.3185 581.194 67.4702C582.659 67.3603 584.13 67.5808 585.498 68.1154C586.865 68.6501 588.095 69.4851 589.096 70.5588C590.097 71.6324 590.843 72.9171 591.278 74.3176C591.714 75.7182 591.829 77.1987 591.614 78.6495V98.1071H585.673V80.1391C585.673 75.3089 583.571 72.9068 579.177 72.9068C578.182 72.8605 577.19 73.0295 576.267 73.4022C575.344 73.7748 574.512 74.3424 573.83 75.0658C573.147 75.7893 572.629 76.6516 572.311 77.5937C571.993 78.5357 571.883 79.5352 571.989 80.5237V98.1075H566.048V68.0504Z" fill="white"/>
<path d="M625.185 60.5672V68.1873H631.707V73.1839H625.185V88.6393C625.185 91.7878 626.484 93.1665 629.441 93.1665C630.198 93.164 630.955 93.1183 631.707 93.0296V97.9706C630.64 98.1612 629.559 98.2626 628.475 98.2737C621.868 98.2737 619.237 95.9531 619.237 90.1581V73.1836H614.458V68.1871H619.237V60.5672H625.185Z" fill="white"/>
<path d="M639.822 56.317H645.711V72.8807H646.181C646.971 71.1497 648.276 69.704 649.918 68.7404C651.561 67.7769 653.461 67.3425 655.36 67.4963C656.817 67.4172 658.274 67.6601 659.626 68.2077C660.978 68.7553 662.193 69.5942 663.183 70.6645C664.173 71.7347 664.915 73.01 665.355 74.3993C665.794 75.7886 665.922 77.2577 665.727 78.7017V98.1075H659.78V80.1651C659.78 75.3642 657.541 72.9327 653.343 72.9327C652.322 72.8491 651.295 72.9893 650.334 73.3434C649.372 73.6975 648.5 74.2571 647.778 74.9829C647.056 75.7087 646.502 76.5833 646.154 77.5454C645.806 78.5075 645.673 79.534 645.763 80.5529V98.1074H639.822L639.822 56.317Z" fill="white"/>
<path d="M700.369 89.9919C699.562 92.7389 697.813 95.1151 695.428 96.7048C693.044 98.2944 690.175 98.9963 687.325 98.6876C685.341 98.7399 683.37 98.3606 681.549 97.5761C679.727 96.7916 678.098 95.6207 676.775 94.1446C675.452 92.6685 674.466 90.9226 673.887 89.0281C673.307 87.1336 673.147 85.1358 673.419 83.1735C673.154 81.2052 673.317 79.2031 673.895 77.3029C674.473 75.4027 675.454 73.6488 676.77 72.1598C678.086 70.6707 679.707 69.4814 681.524 68.6724C683.34 67.8633 685.31 67.4534 687.298 67.4703C695.675 67.4703 700.728 73.1841 700.728 82.6226V84.6924H679.471V85.0248C679.378 86.1279 679.516 87.2381 679.878 88.2844C680.24 89.3307 680.817 90.29 681.572 91.1007C682.327 91.9114 683.243 92.5557 684.262 92.9922C685.28 93.4287 686.379 93.6479 687.488 93.6356C688.909 93.8059 690.349 93.5504 691.624 92.9016C692.899 92.2527 693.953 91.2398 694.65 89.9917L700.369 89.9919ZM679.47 80.3053H694.676C694.751 79.2966 694.613 78.2833 694.273 77.3307C693.932 76.378 693.396 75.5071 692.698 74.7738C692 74.0405 691.156 73.461 690.221 73.0727C689.285 72.6844 688.279 72.4958 687.266 72.519C686.238 72.5061 685.218 72.6987 684.267 73.0855C683.315 73.4723 682.45 74.0454 681.724 74.771C680.997 75.4967 680.424 76.3602 680.037 77.3107C679.65 78.2612 679.457 79.2794 679.47 80.3053Z" fill="white"/>
</g>
<defs>
<clipPath id="clip0_6_64">
<rect width="800" height="267" fill="white"/>
</clipPath>
</defs>
</svg>