<svg xmlns="http://www.w3.org/2000/svg" width="900" height="267" viewBox="0 0 900 267" fill="none">
<path d="M866.255 267H33.3175C14.6597 267 0 252.315 0 233.625V33.375C0 14.685 14.6597 0 33.3175 0H866.255C884.913 0 899.573 14.685 899.573 33.375V233.625C899.573 252.315 884.913 267 866.255 267Z" fill="black"/>
<path d="M866.255 5.34C881.582 5.34 894.242 18.0225 894.242 33.375V233.625C894.242 248.978 881.582 261.66 866.255 261.66H33.3175C17.9915 261.66 5.3308 248.978 5.3308 233.625V33.375C5.3308 18.0225 17.9915 5.34 33.3175 5.34H866.255ZM866.255 0H33.3175C14.6597 0 0 15.3525 0 33.375V233.625C0 252.315 14.6597 267 33.3175 267H866.255C884.913 267 899.573 252.315 899.573 233.625V33.375C899.573 15.3525 884.913 0 866.255 0Z" fill="#A6A6A6"/>
<path d="M315.85 68.085C315.85 73.425 314.517 78.0975 311.186 81.435C307.188 85.44 302.523 87.4425 296.526 87.4425C290.529 87.4425 285.864 85.44 281.866 81.435C277.868 77.43 275.869 72.7575 275.869 66.75C275.869 60.7425 277.868 56.07 281.866 52.065C285.864 48.06 290.529 46.0575 296.526 46.0575C299.191 46.0575 301.857 46.725 304.522 48.06C307.188 49.395 309.187 50.73 310.519 52.7325L307.188 56.07C304.522 52.7325 301.19 51.3975 296.526 51.3975C292.528 51.3975 288.53 52.7325 285.864 56.07C282.533 58.74 281.2 62.745 281.2 67.4175C281.2 72.09 282.533 76.095 285.864 78.765C289.196 81.435 292.528 83.4375 296.526 83.4375C301.19 83.4375 304.522 82.1025 307.854 78.765C309.853 76.7625 311.186 74.0925 311.186 70.755H296.526V65.415H315.85V68.085ZM346.502 51.3975H328.511V64.08H345.17V68.7525H328.511V81.435H346.502V86.775H323.18V46.725H346.502V51.3975ZM368.492 86.775H363.161V51.3975H351.833V46.725H379.82V51.3975H368.492V86.775ZM399.144 86.775V46.725H404.475V86.775H399.144ZM427.131 86.775H421.8V51.3975H410.472V46.725H437.792V51.3975H426.464V86.775H427.131ZM490.434 81.435C486.436 85.44 481.771 87.4425 475.774 87.4425C469.777 87.4425 465.113 85.44 461.114 81.435C457.116 77.43 455.117 72.7575 455.117 66.75C455.117 60.7425 457.116 56.07 461.114 52.065C465.113 48.06 469.777 46.0575 475.774 46.0575C481.771 46.0575 486.436 48.06 490.434 52.065C494.432 56.07 496.431 60.7425 496.431 66.75C496.431 72.7575 494.432 77.43 490.434 81.435ZM465.113 78.0975C467.778 80.7675 471.776 82.77 475.774 82.77C479.772 82.77 483.77 81.435 486.436 78.0975C489.101 75.4275 491.1 71.4225 491.1 66.75C491.1 62.0775 489.768 58.0725 486.436 55.4025C483.77 52.7325 479.772 50.73 475.774 50.73C471.776 50.73 467.778 52.065 465.113 55.4025C462.447 58.0725 460.448 62.0775 460.448 66.75C460.448 71.4225 461.781 75.4275 465.113 78.0975ZM503.761 86.775V46.725H509.758L529.082 78.0975V46.725H534.413V86.775H529.082L508.425 54.0675V86.775H503.761Z" fill="white" stroke="white" stroke-width="1.18519" stroke-miterlimit="10"/>
<path d="M453.785 145.515C437.792 145.515 425.132 157.53 425.132 174.217C425.132 190.237 437.792 202.92 453.785 202.92C469.777 202.92 482.438 190.905 482.438 174.217C482.438 156.862 469.777 145.515 453.785 145.515ZM453.785 190.905C445.122 190.905 437.792 183.562 437.792 173.55C437.792 163.537 445.122 156.195 453.785 156.195C462.447 156.195 469.777 162.87 469.777 173.55C469.777 183.562 462.447 190.905 453.785 190.905ZM391.814 145.515C375.822 145.515 363.161 157.53 363.161 174.217C363.161 190.237 375.822 202.92 391.814 202.92C407.806 202.92 420.467 190.905 420.467 174.217C420.467 156.862 407.806 145.515 391.814 145.515ZM391.814 190.905C383.151 190.905 375.822 183.562 375.822 173.55C375.822 163.537 383.151 156.195 391.814 156.195C400.477 156.195 407.806 162.87 407.806 173.55C407.806 183.562 400.477 190.905 391.814 190.905ZM317.849 154.192V166.207H346.502C345.836 172.882 343.17 178.222 339.839 181.56C335.841 185.565 329.177 190.237 317.849 190.237C299.858 190.237 286.531 176.22 286.531 158.197C286.531 140.175 300.524 126.157 317.849 126.157C327.178 126.157 334.508 130.162 339.839 134.835L348.501 126.157C341.171 119.482 331.842 114.142 318.515 114.142C294.527 114.142 273.87 134.167 273.87 158.197C273.87 182.227 294.527 202.252 318.515 202.252C331.842 202.252 341.171 198.247 349.168 189.57C357.164 181.56 359.829 170.212 359.829 161.535C359.829 158.865 359.829 156.195 359.163 154.192H317.849ZM620.372 163.537C617.707 156.862 611.043 145.515 596.384 145.515C581.724 145.515 569.73 156.862 569.73 174.217C569.73 190.237 581.724 202.92 597.716 202.92C610.377 202.92 618.373 194.91 621.039 190.237L611.71 183.562C608.378 188.235 604.38 191.572 597.716 191.572C591.053 191.572 587.055 188.902 583.723 182.895L621.705 166.875L620.372 163.537ZM581.724 172.882C581.724 162.202 590.386 156.195 596.384 156.195C601.048 156.195 605.713 158.865 607.045 162.202L581.724 172.882ZM550.405 200.25H563.066V116.812H550.405V200.25ZM530.415 151.522C527.083 148.185 521.752 144.847 515.089 144.847C501.096 144.847 487.768 157.53 487.768 173.55C487.768 189.57 500.429 201.585 515.089 201.585C521.752 201.585 527.083 198.247 529.749 194.91H530.415V198.915C530.415 209.595 524.418 215.602 515.089 215.602C507.759 215.602 502.428 210.262 501.095 205.59L490.434 210.262C493.766 217.605 501.762 226.95 515.755 226.95C530.415 226.95 542.409 218.272 542.409 197.58V146.85H530.415V151.522ZM515.755 190.905C507.093 190.905 499.763 183.562 499.763 173.55C499.763 163.537 507.093 156.195 515.755 156.195C524.418 156.195 531.081 163.537 531.081 173.55C531.081 183.562 524.418 190.905 515.755 190.905ZM678.345 116.812H648.359V200.25H661.02V168.877H678.345C692.338 168.877 705.665 158.865 705.665 142.845C705.665 126.825 692.338 116.812 678.345 116.812ZM679.011 156.862H661.02V128.16H679.011C688.34 128.16 693.671 136.17 693.671 142.177C693.004 149.52 687.674 156.862 679.011 156.862ZM755.641 144.847C746.312 144.847 736.984 148.852 733.652 157.53L744.98 162.202C747.645 157.53 751.643 156.195 756.308 156.195C762.971 156.195 768.968 160.2 769.635 166.875V167.542C767.636 166.207 762.305 164.205 756.974 164.205C744.98 164.205 732.985 170.88 732.985 182.895C732.985 194.242 742.981 201.585 753.642 201.585C762.305 201.585 766.303 197.58 769.635 193.575H770.301V200.25H782.295V168.21C780.963 153.525 769.635 144.847 755.641 144.847ZM754.309 190.905C750.311 190.905 744.313 188.902 744.313 183.562C744.313 176.887 751.643 174.885 757.64 174.885C762.971 174.885 765.637 176.22 768.968 177.555C767.636 185.565 760.972 190.905 754.309 190.905ZM824.275 146.85L810.282 182.895H809.616L794.956 146.85H781.629L803.619 197.58L790.958 225.615H803.619L837.602 146.85H824.275ZM712.329 200.25H724.989V116.812H712.329V200.25Z" fill="white"/>
<path d="M69.3005 50.0625C67.3015 52.065 66.6351 55.4025 66.6351 59.4075V206.925C66.6351 210.93 67.9678 214.267 69.9669 216.27L70.6332 216.937L153.261 134.167V132.832L69.3005 50.0625Z" fill="url(#paint0_linear_6_114)"/>
<path d="M179.915 162.202L152.594 134.835V132.832L179.915 105.465L180.581 106.132L213.232 124.822C222.561 130.162 222.561 138.84 213.232 144.18L179.915 162.202Z" fill="url(#paint1_linear_6_114)"/>
<path d="M180.581 161.535L152.594 133.5L69.3005 216.937C72.6323 220.275 77.2967 220.275 83.2939 217.605L180.581 161.535Z" fill="url(#paint2_linear_6_114)"/>
<path d="M180.581 105.465L83.2939 50.0625C77.2967 46.725 72.6323 47.3925 69.3005 50.73L152.594 133.5L180.581 105.465Z" fill="url(#paint3_linear_6_114)"/>
<path opacity="0.2" d="M179.915 160.867L83.2939 215.602C77.9631 218.94 73.2986 218.272 69.9669 215.602L69.3005 216.27L69.9669 216.937C73.2986 219.607 77.9631 220.275 83.2939 216.937L179.915 160.867Z" fill="black"/>
<path opacity="0.12" d="M69.3005 215.602C67.3015 213.6 66.6351 210.262 66.6351 206.257V206.925C66.6351 210.93 67.9678 214.268 69.9669 216.27V215.602H69.3005ZM213.232 142.177L179.915 160.868L180.581 161.535L213.232 142.845C217.897 140.175 219.896 136.837 219.896 133.5C219.896 136.837 217.23 139.507 213.232 142.177Z" fill="black"/>
<path opacity="0.25" d="M83.2939 50.73L213.232 124.822C217.23 127.492 219.896 130.162 219.896 133.5C219.896 130.162 217.897 126.825 213.232 124.155L83.2939 50.0625C73.965 44.7225 66.6351 48.7275 66.6351 59.4075V60.075C66.6351 50.0625 73.965 45.39 83.2939 50.73Z" fill="white"/>
<defs>
<linearGradient id="paint0_linear_6_114" x1="145.264" y1="58.1392" x2="33.2381" y2="169.966" gradientUnits="userSpaceOnUse">
<stop stop-color="#00A0FF"/>
<stop offset="0.007" stop-color="#00A1FF"/>
<stop offset="0.26" stop-color="#00BEFF"/>
<stop offset="0.512" stop-color="#00D2FF"/>
<stop offset="0.76" stop-color="#00DFFF"/>
<stop offset="1" stop-color="#00E3FF"/>
</linearGradient>
<linearGradient id="paint1_linear_6_114" x1="225.453" y1="133.507" x2="64.2163" y2="133.507" gradientUnits="userSpaceOnUse">
<stop stop-color="#FFE000"/>
<stop offset="0.409" stop-color="#FFBD00"/>
<stop offset="0.775" stop-color="#FFA500"/>
<stop offset="1" stop-color="#FF9C00"/>
</linearGradient>
<linearGradient id="paint2_linear_6_114" x1="165.435" y1="148.826" x2="13.5255" y2="300.474" gradientUnits="userSpaceOnUse">
<stop stop-color="#FF3A44"/>
<stop offset="1" stop-color="#C31162"/>
</linearGradient>
<linearGradient id="paint3_linear_6_114" x1="48.6237" y1="1.1748" x2="116.462" y2="68.8959" gradientUnits="userSpaceOnUse">
<stop stop-color="#32A071"/>
<stop offset="0.069" stop-color="#2DA771"/>
<stop offset="0.476" stop-color="#15CF74"/>
<stop offset="0.801" stop-color="#06E775"/>
<stop offset="1" stop-color="#00F076"/>
</linearGradient>
</defs>
</svg>