<svg xmlns="http://www.w3.org/2000/svg" width="200" height="125" viewBox="0 0 200 125" fill="none">
  <path fill-rule="evenodd" clip-rule="evenodd" d="M53.3333 106.466C82.7885 106.466 106.667 82.6331 106.667 53.2332C106.667 31.1833 124.575 13.3083 146.667 13.3083C168.758 13.3083 186.667 31.1833 186.667 53.2332C186.667 75.2831 168.758 93.1581 146.667 93.1581V106.466C176.122 106.466 200 82.6331 200 53.2332C200 23.8333 176.122 0 146.667 0C126.586 0 109.098 11.0763 100 27.4417C90.9018 11.0763 73.4135 0 53.3333 0C23.8781 0 0 23.8333 0 53.2332C0 82.6331 23.8781 106.466 53.3333 106.466ZM53.3333 93.1581C75.4247 93.1581 93.3333 75.2831 93.3333 53.2332C93.3333 31.1833 75.4247 13.3083 53.3333 13.3083C31.2419 13.3083 13.3333 31.1833 13.3333 53.2332C13.3333 75.2831 31.2419 93.1581 53.3333 93.1581Z" fill="#28825B"/>
  <path d="M125.235 79.8498C117.484 100.701 100.89 117.264 80 125V110.588C93.5486 104.301 104.498 93.373 110.796 79.8498H125.235Z" fill="#28825B"/>
</svg>